<?xml version="1.0" encoding="utf-8"?>
<!-- Generator: Adobe Illustrator 21.1.0, SVG Export Plug-In . SVG Version: 6.00 Build 0)  -->
<svg version="1.1" id="Layer_1" xmlns="http://www.w3.org/2000/svg" xmlns:xlink="http://www.w3.org/1999/xlink" x="0px" y="0px"
	 viewBox="0 0 1153.3 1452.9" style="enable-background:new 0 0 1153.3 1452.9;" xml:space="preserve">
<style type="text/css">
	.st1{font-family:sans-serif;}
	.st2{font-size:18px;}
	.st3{font-size:15px;}
</style>
<rect fill="#88AADD" width="1153.3" height="1452.9"/>
<g id="land">
	<path id="vn-12" d="M107.4,57.1c10.6,0.5,7.2,9,10.9,14.3c3.6,5.3,9.6,6,11,11.4c0.9,3.5-1.7,5.4-0.9,8.7c0.5,2.2,4.8,4.9,6.1,5.2
		c5.4,1.2,7.8-3.5,11.6,1.8c1.6,2.3,1.3,4.8-0.3,6.8c5.9,3.1,7.4,10,10.5,13.3c0.8,0.9,5,2.7,5.3,3.4c0.7,1.5-0.3,4-0.1,5.5
		c0.4,3.1,2,8.9,4.2,11c-2,1.7-3.6,3.2-5.1,4.2c-1.8,1.2-4.8-0.9-3.5,5c1,4.7,9.6,7.6,5.8,12.4c-5.9-1.5-0.9,7.7-6.4,3.4
		c-0.1,0.7-0.2,1.5-0.3,2.2c-3-0.3-4.4-2.5-4.1-5.5c-2.2,1.6-7.6-3.6-6.6-6.2c-8.4,1.2-3.1-3.3-3.4-6.7c-0.1-1.4-4-6.5-5.3-8.2
		c-1.9-2.5-5.7-5.9-9.9-5.8c-4.1,0.1-2.8,2-5.1,5c-5.6-2.7-6.2-24.6-16.2-15.6c-1.6,1.4-2.5,3-3.5,5.2c-1.3,2.8,3.9,3.4-1.2,3.4
		c-2.4,0-6.5-2.6-8.8-3.3c-0.8-0.2-1.9,0.4-2.7,0.3c-0.3,0-2.6-2.3-2.9-2.6c-0.2,2.1-1.3,2.6-0.7,4.3c-1.2-0.4-5.4-0.3-6.4,0
		s-3.1,2.9-3.2,2.9c-2.5-0.3-5.4-4.6-4.7-6.6c-3,1.5-5.2,0.8-6.7,3.3C60,128.9,55,126.2,54,121c-0.5-2.5,1.9-4.1,0.7-6.7
		c-1.1-2.2-6.1-4-7.6-3.6c4.1,2.1,3.1,9.8-0.9,7.5c-0.3,0-0.7,0.1-1,0.1c-3.3-2.4-1.1-5.9-5.4-7.8c-3.1-1.3-2.8,2.3-6.5-0.9
		c-2.4-2-3.6-6.8-5.7-9.1c-1.3-1.5-7.3-4.8-4.5-5.6c0.3-4.3-2.2-4.6-4-7.1c-1.1-1.7-2-4.4-2.9-6.6c0.8-0.3,1.7-0.5,2.5-0.8
		c-0.3-0.7-0.5-1.4-0.8-2.1c3.5-0.3,3.5-3.8,6.6-4.8c-6.6-3.5,1-5.8,3-8.9c1.3-1.9,0.9-6.2,5.4-4.8c2.6,0.8,3.2,5.2,5,6
		c2.6,1.1,1.2-1.9,4.1-1.3c1.5,0.3,2.5,3,3.9,3.7c0.9,0.4,2.4-1.3,3.7-0.7c0.8,0.3,4.3,2.4,5,3c2.6,2.1,2.9,3,5.8,4.4
		c1.8,0.8,3.4,0.4,5,2.5c2.4,3,2.9,8.1,6.9,11.1c1.1,0.8,2.5-0.2,3.5,0.3c1.3,0.7,0.9,2.4,3,3c3.2,0.9,3.9,0,5.2-1.7
		c0.4-0.5-0.2-3,1.6-4.8c0.9-0.9,5.5-2.1,5.8-2.5c1.8-2.8-1.6-5.4,1.5-8.9c1.3-1.4,3.9-2.1,5.6-3.1c2.8-1.6,2.5-1,4.2-4.2
		c1.1-2.1,3-7.5,2.8-10.4C106.3,56.4,106.8,56.7,107.4,57.1z"/>
	<path id="vn-10" d="M189.5,53.9c3.8,0.1-0.9,5.9,1.8,8.9c1,1.2,3.7,0.8,4.7,1.6c2.3,1.8,0.9,3.4,2.7,4.8c1.1,0.8,3.1-0.2,3.6,0.3
		c0,0,1.8,1.8,2,1.9c-0.6-0.4,5.2,5.8,4.7,4.5c1.5,4-1.6,3-2,3.6c-0.6,1-2.2,2.2-2.6,4.5c2.3,1.6,4.1,3.4,4.7,5.4
		c0.2,0.9-1.8,1-1.3,2.5c0.8,2.4,2,1.6,3.4,2.8c2.4,2,5.6,6.6,8.2,6.8c-0.4,1.5-5.4,13.2,0.6,9.4c-0.6,2.9,1.4,3.4,3.7,3
		c-1.6,1.7-1.2,2-0.2,4.6c-6.9-4.6-1.4,8-6.4,8.1c-1.6,0-7.6-6.6-8.9-7.7c-2.7-2.2-3.7-3.7-6.7-0.7c1.3,1.5,1.9,3.5,2,5.6
		c-6.6,3.9,4.6,11.5,1.4,18c0,0-5.5,5.2-5.8,5.2c-2.4,0.1-1.4-2.4-2.8-3.4c-3.5-2.6-6.1-1.3-10.3-3.5c5.4,8.6-6.9,4.7-11.5,3.9
		c-7.9-1.5-8.6-2.5-10.9-10c-0.9-2.9-0.8-7.3-2.1-9.8c-1.3-2.6-4.5-4-6.3-6.4c-2.8-3.5-3.6-9.5-9.4-12.3c3.7-4.2-0.3-9.2-5.8-9.2
		s-5.2,0.7-8.4-1.8c-2.7-2.1-3.6-3.1-3.4-6.2c0.2-3.8,3.1-3,0.3-7.2c-1.2-1.9-3.1-2.6-3.1-4.4c0-1.6,2.7-3,2.9-3.7
		c0.5-1.7-1-3.4-0.7-4.3c0.7-2.4,2.3-6,4.1-7.9c3.3-3.5,4.8-1.5,8.5,2.5c4.1,4.6,7.8,8.2,12.1,13.2c2.4,2.8,6.7,7.3,10.2,8.5
		c5.5,1.9,4.9-1.9,5.9-6.8c1.4-7.7,0.1-12.8,6.7-18.8C177.9,56.7,184.9,53.1,189.5,53.9z"/>
	<path id="vn-2" d="M286.9,1c2.7,3.7,3.8,6.5,7.8,8.8c0.6,0.3,1-1.2,2.2-0.6c-0.3-0.2,3.4,4.1,3.2,3.7c0.3,0.4,0.7,3.3,1.1,3.8
		c1.3,1.4,2.6,1.8,3.7,2.8c0.6,0.5,5.5,3.3,5.4,4.7c-0.2,2-3.9,2.7-4.8,3.6c-1.3,1.4-1.7,2.5-2.7,4.4c-2.7,5.6-2.6,4.6-8.4,6.2
		c-4.6,1.3-3.2,2.5-5.2,5.1c-1.3,1.7-5.6,3.1-4.7,7.2c-1-0.2-2.2,0.1-3.2-0.2c0.6,3.5,8.1,5.6,11,7.2c1.6,0.9,3.6,2.5,4.9,3.6
		c2.3,2.1,2.5,4.4,4.7,6.9c-2.1,2.2,1,3.8-0.4,6.3c-0.8,1.5-3.9,1.9-4.8,2.5c-1.3,0.1-11.9-7.6-11.4,0c-2.9-0.6-2.7-5.4-6.5-4.3
		c-1.1-0.9-6.8-5.4-8.5-4.6c-3.1,1.4,0.4,5.1,1,7.2c-0.8-0.1-0.7-0.1-1.5-0.4c-0.5,1.7-0.9,2.4-1.2,3.8c-0.4,1.9,0.4,2.2,0,4.8
		c-0.4,3-1,8.7-3.6,9.4c2.6,2.9-0.5,3-1.1,4.5c-0.3,0.8,0.9,3.1,0.9,3.1c-0.4,0.6-3.2,1.1-3.1,0.4c-0.5,2.7,1.5,6.2-3.7,8.7
		c-0.6-6-5.5-5.3-9.9-7.9c-1.2,2.6,0.6,4.1,2,5.7c-1.3,0.5-1.4,1.4-2.7,1.8c3.6,2.6,1.8,5.8,0.1,8.6c-1.3-1.7-2.7-2.5-3.9-0.3l0,0
		l0,0l0,0c-1.4-0.1-1.6,1.2-2.9-0.1c-1.8,3.1-5.8,1.8-7.6-0.9c-2.1-3.3-0.8-6.4-6.1-8c-0.5-0.2-3.9-1.2-4.2-1.1
		c-2.3,0.4-2.9,3.2-4,3.5c-5.5,1.3-0.4-6.4,0.1-9.2c-2.5-0.2-5.8-4.8-8.2-6.8c-1.3-1-2.5-0.3-3.3-2.4c-0.5-1.5,1.1-2.1,1-2.5
		c-0.6-2.1-1.6-4.1-4.5-5.8c0-0.5,0.9-3.2,1-3.5c0.5-1,2.2-0.6,2.3-0.8c1.2-2.1,1.1-1.6-0.5-4.4c-0.4-0.7-2.9-4.9-3.5-5.3
		c-1.8-1.3-7.2,1-5.7-3.7c2.6,4.3,11.8-4.8,14.6-7.6c1.4-1.5,11.1-10.8,8.5-2.7c1.9-1,2.2-0.7,2.3-2.9c3.5,1.9,6.7,3.6,10.2,1.5
		c-1.1,0.6,0-2.3,0.2-2.6c0.4-0.5,1.4,0.1,2-0.7c2.4-3.3,2.3-2.8,5.2-5.4c2-1.8,3.1-0.1,3.2-3.7c0,0-2-4-2.2-4.5
		c-1.4-3.7-1.8-8.3-3.1-11.9c3.8-0.7,5.3,0.1,7.8-1.6c0.5-0.3,1.6-2.9,3.1-3.9c0.4-0.3,2.1,1.3,2.6,1c0.2-0.1,1.1-1.4,1-1.4
		c-0.5,0.1,1.5-1.8,1.9-2.1c1.1-0.7,0.4,1.2,1.4,0.6c1.1-0.7,2.4-1.6,3.7-2.4c1.4-1,2-2.8,3.8-3.4c1.5-0.5,2.9,1.3,2.2,1.4
		c2.5-0.4,4.6-3.3,6.4-3.6c3.1-0.7,2.3,2.7,5.5,0.6c2.1-1.3,2.5-4.9,3.1-5.9c0.6-1.1,4.8-2.4,1.7-4.2C284.6,0.5,285.8,0.5,286.9,1z"
		/>
	<path id="vn-4" d="M308.2,27.7c-0.8,6.2,9.8,2.3,14.6,4.3c0.1,0,1.3,2.5,1.9,3s3.1,2.4,3.9,2.9c1.5,0.9,2.8,0.4,4.2,1.8
		c0.6,0.6,2,4,2,4c1.6,1,1.5,0,2.8,0.4c0.4,0.1,2.1-1.3,2.6-1.4c0.7-0.1,1.1,1.6,1.6,1.6c1,0,2.4-0.5,3.3-0.9
		c1.9-0.7,0.8-0.3,2.2-1.2c1.7-1.2-0.4-1.9,2.6-3.2c1.5-0.7,4.1-0.4,5.6-0.5c2-0.1,5.1,0.7,7.6,1.4c5.9,1.5,9,13.5,13.4,10.3
		c2.8,4.4,2.8-0.1,5-0.6c1.9-0.4,3.5-0.2,5.1-0.5c0,0,3.9-1.2,4.1-1.4c1.2-0.9,2.6-4.1,3.6-4.2c1.4-0.2,2.1,1.8,2.1,1.8
		c-0.3,0,5.2,0.2,4.1-0.3c1.6,0.8,1.9,2.6,3.6,3.9c0.9,0.7,0.4,1.6,1.5,1.9c1.2,0.3,2-1.1,1.7-1.1c1.6,0.2,3.2-1.8,4.9,1
		c-0.7,0.4-0.9,0.6-1.4,1c2.3,1.5,11.5,6,11.5,6.9c0.1,3.4-10.3,3.4-5,8.6c-3.5,3.5-2.6,5.6-4.7,9.8c-1.1,2.2-3.3,3.3-6.5,2.5
		c-3.7-0.9-2.2-4.2-5-0.2c-2.3,3.4-1.4,9.6-3.6,13.1c-0.7,1.2-1.9,3.6-3.8,4.6c-1.8,1-3-0.8-3.7,1.8c1.3,2.9-3.2,1.4-5.1,1.6
		c0.4,0-3.6-0.5-3.2-0.4c-0.4-0.1-1.4,1.3-2.3,0.9c-1-0.5-1.5-2.4-1.8-2.6c-2.8-1.9-5.8-8.7-11.3-6.6c-1.3,1.6-2.5,3.8-2.7,6.1
		c-2-4-7.7,2.7-8.1-4.9c-0.1-1.2,1.8-2.3,1.8-3.7c0-2.8-0.3-2-1.1-3.8c-0.9-1.7,0.2-2.6-2.4-3.3c0.3-0.5,0.5-1.4,0.6-2
		c-3.1-0.8-9.3,2.9-12,4.5c-1.6,0.9-3.9,2.2-4.6,2.2c-1,0.1-5.9-2.2-6.1-2.3c-2.4,1.3-3.2-1.5-5.3-2.2c1.3-2.3-0.9-3.7-1.7-5.4
		c-1.7-4-2.2-4.1,2.3-8.5c-2.2-1.5-3.5-7.4-6.9-2.7c-0.2-0.3-0.3-0.6-0.5-0.9c-1.8,0.1-3,1.7-4.9,3c-1.9,1.2-3.7-0.8-3.2,2.7
		c-2.3-0.3-5.8,0.7-6.6,3.4c-1-0.3-2-0.3-3-0.1c-0.5-2.3-1.5-4.2,0.1-5.9c-2.1-2.3-2.5-4.6-4.5-6.5c-1.4-1.3-3.3-3-5.1-4
		c-3-1.7-10.2-3.6-11-7.2c1,0.3,2.2,0,3.2,0.2c-0.9-4.4,3.1-4.7,4.9-6.8c2.4-2.8-0.9-3,4.5-4.9c4.2-1.5,5.7-0.5,8.2-4.6
		c2-3.3,1-6.7,5.6-7.6C308.1,26.8,308.1,27.2,308.2,27.7z"/>
	<path id="vn-14" d="M121.8,138.1c2.1-3.1,1.1-4.8,5.1-4.9c4.2-0.1,7.9,3.2,9.9,5.8c1.2,1.6,5.1,6.8,5.3,8.2c0.3,3-5,8.5,3.4,6.8
		c-1,2.6,4.4,7.8,6.6,6.2c-0.2,3,1.1,5.2,4.1,5.5c0.1-0.7,0.2-1.5,0.3-2.2c2.2,1.6,5,0.2,4.7,3.7c2.9,0.6,4.1,0,6.3,0.3
		s4.8,1.9,7.4,2.3c5.9,0.8,10.8-2.4,16-1.8c2.6,0.3,6.3,0.4,6,2.4c-0.5,3.3-4.6,4.6-4.8,8c-0.1,2.2,2.5,17.6,6.1,13.1
		c1.6,1.2,2.8,1.1,4.1,2.1c1.4,1,2.1,3.5,3.4,4c2.5,0.9,4-0.6,6-1.6c3.5-1.8,2-3.5,6.4-4c3.6-0.4,3.9,2.4,8.2,2.9
		c3.4,0.4,2.8-2.5,6.5-2.2c0.3,2.5,1.2,4.6,2.4,5.7c1.9,1.8,1.4,0.4,3.5,1.4c4.5,2.2,3.1,5,5.2,9.7c0-0.7-1.1,0.8-1,0.7
		c3.1,1.9-0.3,5.2,1.3,7.6c0.7,1.1,4.1,2.6,4.5,3.1c-15.1,1.1,13.4,23,6.8,28.4c1.3,0,2.2,0.9,3.5,1.1c-1.5,1.4-1.8,1.8-2.6,3.8
		c-0.3,0.9,1.3,2.5,1.7,2c-1.6,2.1-4.2,1-6.2,0.3c-2-0.6-4.3-3-6.6-2.6c-3.4,0.7-3.4,3.6-1.9,5.8c-1.5,1.2-1.3,3.3-0.2,5.1
		c-3,1.3-5.1,2.8-4,6.5c-0.5,0-1.1,0-1.6,0c-3.5,1.7-5.5-3.7-8.9-1.3c-0.6-2.2-1.7-2.8-3.1-4.3c-0.9-1-1-2.5-1.6-3.1
		c-0.5-0.4-3.2,0-4.3-0.7c-0.8-0.6-0.4-2.9-2.2-3.6c-1.1-0.4-2.9,1.4-3.1,1.3c-3.4-1.4-1.6-2.1-3.8-5.5c-2.8-4.3-8.4-3.9-12.6-8.1
		c-1.1-1.1-5.3-11.9-8-5c-1.2-2.4-2.7-4.3-5.8-5c-0.6-0.1-2.6-0.1-3.4-0.4c0.6,0.2-4-1.2-2.6-1.1c-1.7-0.1-4.5-0.5-6.5,1.5
		c-1.1,1.2,0.5,3.1-2.3,4.5c-3.1,1.6-9.2-0.4-12.6,0.8c-1.5,0.5-1.9,2.5-3.2,3.3c-0.6,0.3-2.2-1.8-3.5-0.4c-0.7,0.7-1,3.5-1.3,4.5
		c-0.4,1.5-0.7,3.9-1.3,5.2c-0.7,1.4,0.4,1.1-1,2.9c-0.7,0.9-3-0.4-3.5,0.4c-1.3,2.3,3.6,8.4-4.1,6.6c-1.2-0.3-1.5-2.8-2.2-3.4
		c-1.8-1.5-4.5-4-7.1-4.7c-1.8-0.5-4.3,0.5-5.8-0.3c-2-1-2.5-6.2-3.9-6.6c-2.7-0.8-3.1,2-5.9,2.6c-3,0.6-4.3-1.2-7.8-2.3
		c-1.2-0.4-2-1.5-2.8-1.7c-1.5-0.4-2.7,1.8-5,0.2c-1.6-1.1-1-5.3-1.4-6c1.1-0.1,5.1,0.2,5.5-0.1c1.7-1.5-0.9-1.8-0.2-3.3
		c0.9-2.1,4.1-4,0-6.4c2.3-2.4-2.2-6.6,2.1-5.9c-4.6-6.7,8.3,0.9,11.3-0.7c-5.4-5.5-0.2-8.4,0.8-12.7c0.3-1.2,0.4-5,0.3-6.1
		c-0.7-5.7-2.4-3.7-6.4-6.6c4.8-4.7-5.8-5.4-1.1-8.8c3.9-2.8,6.7,1.7,9-3.6c1.2-2.6-0.6-3.4,1.4-5.7c1.1-1.2,3.4-1.2,4.4-2.4
		c1.1-1.3,3.6-8.4,1.9-9.8c1.6-1.7,2.6-4.1,4.8-2.9c-0.1-3.6-2.9-5.9-4.1-8.9c-1.2-2.9-1.2-5.8-2.9-9c-1.1-2.1-3.2-2-3.4-4.9
		C120.3,140.8,123.2,141.2,121.8,138.1z"/>
	<path id="vn-15" d="M219.8,111c0-7.5,11.2-1.2,13,1.4c1.4,2-0.9,3.5,2.3,5.3c1.9,1.1,4,1.8,5.5-0.8c3.7-0.2,3.1,1.9,4.1,4.8
		c1.2,3.8,1.2,4.4,3.9,6.9c2,1.8,5.2,3.4,8.1,2c-0.5,1.7-1.3,7.9-0.8,9.5c0.5,1.6,2.2,0.9,2.2,0.9c0.5,1.1-0.3,3,0.2,3.9
		c1.2,1.8,5.6,4.3,6.5,6.6c0.7,2-0.8,6.5-2.8,7.8c1.8,1.6,3.1,2.3,2.7,4.4c1.2,1.1,1,0.4,0.7,2.3c-5.6-1.2-5.5-1.6-10.4,0.6
		c0.2,1.3-0.2,0.8-0.7,2.5c-2-1.9-6.2,0.5-5.9,3.7c-0.6-0.1-1.1-0.2-1.7-0.3c2.4,3.4-0.7,5.4-0.7,7.4c0,3.8,2.8,7.3,2.5,10.7
		c0.2-1.5-2.8,8.9-0.7,7.2c-2.4,2-4.9-3.9-4.7,1c-6.1,1.1-10.3,0.8-10.6-6.6c-3.4-0.2-3.3,2.5-6,2.5c-4.2,0-5.2-3.5-8.7-3.1
		c-4.3,0.5-2.7,1.8-6.1,3.7c-2.3,1.3-3,2.7-6,1.8c-1.5-0.5-5.6-4.7-7.4-5.8c-3.3,4.1-6.5-10.3-6.4-12.7c0.1-3.6,4-4.7,4.9-8.3
		c0.6-2.1-2.9-2.2-5.8-2.4c-5.2-0.4-9.8,2.5-15.8,1.8c-2.6-0.3-5.3-2-7.5-2.3c-2.1-0.3-3.6,0.4-6.5-0.2c0-2.4-4.9-8.8,1.5-6.9
		c3.6-4.9-4.4-7.3-5.8-11.9c-1.6-5.1,1.1-4.5,3.1-6c-1.1,0.8,3.8-0.9,3.3-0.8c0.5-0.2,0.2-2.4,1.6-2.6c2.2-0.3,0.9,2.7,2.4,3.8
		c2.5,1.9,6.4,0.3,8.5,0.7c4.9,1,15.5,5.1,10.3-3.4c4,1.8,6.7,0.8,10.2,3c1,0.7,0.5,4,2.5,4.2c0.2,0,6.1-5.4,6.1-5.5
		c3.2-6.5-8-14.1-1.4-18c-0.1-2.1-0.7-4.1-2-5.6c3-3,4-1.5,6.7,0.7c1.2,1,7.4,7.7,8.9,7.7c4.9-0.1-0.5-12.7,6.4-8.1
		c-1.3-2.4-1.3-3.1,0.2-4.6C221.5,114.3,219.5,113.9,219.8,111z"/>
	<path id="vn-8" d="M243.4,117.3c1.3-2.2,2.6-1.4,3.9,0.3c1.7-2.8,3.5-6-0.1-8.6c1.3-0.4,1.4-1.3,2.7-1.8c-1.5-1.6-3.2-3.1-2-5.7
		c4.5,2.6,9.2,1.8,9.9,7.9c5.3-2.1,3.3-6.1,3.7-8.7c0,0.2,2.6,0.2,3-0.3c0.4-0.4-1.3-2-0.9-3.1c0.6-1.5,3.7-1.9,1.1-4.7
		c2.8-0.7,3.1-6.4,3.6-9.4c0.3-1.8-0.7-3.2-0.5-4.4c0.3-1.6,0.9-2.4,1.6-4.2c0.8,0.3,0.7,0.3,1.5,0.4c-0.6-2.1-4.1-5.8-1-7.2
		c1.7-0.8,7.4,3.7,8.5,4.6c3.8-1.1,3.6,3.7,6.5,4.3c-0.5-7.7,10.1,0.1,11.4,0c1.4-1,3.6-1.1,5.1-2.9c2.3-0.6,6.9,6.1,8.1,8.5
		c2.8,5.8-3.6,8.1-3.3,13.2c1.2,0.4,0.7-0.4,1.7-0.7c-1.6,1.9-3.3,0.1-4.8,1.8c-0.4,0.5,0,2.8-0.2,3.2c-1.4,2.7-3.9,4.4-2.3,6.9
		c-1,0.2-1.9,0.8-2.9,0.9c0.4,0.3,0.7,0.7,1.1,1c-6.3,0.8-2.3,11.1,1.8,11.2c-4.8,6.5-0.5,11.7,3.2,17.4c1.5,2.2,3.4,2.5,2,6.5
		c-0.2,0.5-1.9,1.9-1.9,1.7c0-0.1-0.3,3.8-0.1,3.5c-1.2,2-2.6,1.4-3.1,3.5c-0.7,2.7,0.4,4.7,2.9,4.7c-1.2,2.5-1.7,4.8-4.4,6.8
		c0.7,1.9,1.1,3.7,2,6.2c0.7,2,3.4,4.8,3.3,6.4c-0.4,4.6-7.1,4.4-10.1,6.5c-1.8-1.7-6.5-4.2-7.5-0.6c-0.5-0.1-0.9-0.2-1.4-0.3
		c-4-0.1-5.4-6.6-6.5-9.3c-0.8-2.1-4.4-9.8-8.7-7.4c-0.8-2.2-4.1-2.4-6.3-3.5c-1-0.8-1.2-1.6-2.7-2.8c1.9-1.2,3.5-5.8,2.8-7.8
		c-0.8-2.3-5.3-4.7-6.5-6.6c-0.6-1,0.2-2.7-0.2-3.9c0-0.1-1.7,0.8-2.2-0.9c-0.6-1.7,0.2-7.7,0.8-9.5c-3.5,1.7-4.8-0.1-7.3-2
		c-2-1.5-2.9-0.5-4.6-3.9C243.3,122.6,243.7,119.5,243.4,117.3z"/>
	<path id="vn-20" d="M363.8,97.5c0.2-2.3,1.4-4.5,2.7-6.1c5.3-2.2,8.6,4.6,11.3,6.6c2.9,2.2,3.2,2,7,1.8c1.2-0.1,7.6,1.8,5.4-1.3
		c0.4-1.2,3.9-3.5,4.8-3.5c4.4,0,6.5,3.5,2.5,6.5c2.2,1,6.4-0.2,8.3,1c0.6,0.4,3.1,5.4,3.5,6.4c1.5,4-3.4,10.4,1.4,11
		c-2,1.5-0.1,7.6-0.4,10.1c-0.2,2-3.2,8.5,1,8.2c3.1-0.2,1.8-4.6,6.7-3.2c1.5,0.4,1.9,2.3,4.2,2.8c3.9,0.9,8.9-2.2,8.8,4.1
		c2.2,0.8,4.8,1.6,5.8-2.1c1.9,1.3,6.1,1.3,6.4,4.1c0.2,1.8-2,3.7-3.8,4.5c0.4,0.3,1,0.6,1.5,0.9c-4,3.9,4.9,5.6,7.8,7.4
		c2.1,1.3,8.1,7.3,10.7,7.1c0.3,0,2-3.1,3.6-3.2c2.7-0.1,1.8,1.1,3,2.3c3.7,3.7,2.6,6.8,3.7,10.8c-2.5,1.6-5,1.3-7.1,2.3
		c-2.3,1.1-4.3,2.3-7.2,3.2c3.2,2.4,6.6,15.1,3.1,16.4c0.4-0.1-2.3-1.5-2.5-1.4c-0.8,0-2.2,1.3-3,1.4c-1.1,0.1-3.1-0.1-3.8,0
		c-3.3,0.7-2.1,0.4-4.7,1.6c-1.5,0.7-3.1,1.5-4.6,2.6c-1.8-2.7-7.1-6-2.7-9.2c-1.4-1.9-2.9-2-4.6-0.2c-1.6-1.3-0.3-0.4-2.2-0.2
		c-0.2-0.5,0-0.9-0.2-1.5c-2.2,1.4-3.9-0.7-2.2-2.8c-1-2.1-3.3-3.1-5.1-2.3c0.3-2,0-2.5,1.7-3.6c-1-1.7-5-3.9-6.8-3.7
		c-2,0.2-3.2,2.5-2.9,2.5c-2.1,0.2-3.6-1-5.3-2.6c-1.3-1.2,0.5-2.2-2.6-3.6c-0.5-0.2-2.4,0.7-2.9,0.7c-3.5-0.1-5.4-0.3-8,1.9
		c-3.4,3-2.1,6.2-3.4,8.9c-2.6,5.6-6,3.2-9.7,6.1c1.8,1.6,0.4,1.2-0.5,2c-1.2,0.9-2.5,1.1-4,0.8c-3.4,0.3-1.6-3.9-3.4-5
		c-0.6,0.1-0.8,0.4-0.4,0.9c-2.3-0.5-2.5-2.1-1.8-4.8c-0.9-0.3-1.5-0.1-2.4,0.1c-9.2,2-9.2-7.6-5.7-13.8c0.7-1.2,6.1-9.8,1.2-9.1
		c-0.9-0.8-1.6-1.2-2.7-1.5c-0.4-0.2-0.8-0.4-1.2-0.6c-1.6-1.5-2.6-2.6-4.5-3.1c-1.7-1.3-2.9-4.8-0.2-5.8c-1.8-3.5,3.7-8-1.8-9.2
		c0.4-0.4,0.8-0.8,1.2-1.2c-1.4,0.3-0.7-0.6-1.2-0.9c0.2-0.1,0.3-0.1,0.5-0.2c2.7-4.1-2-8,1.8-12.1c0.5-0.5,2.5-0.3,3.4-1.2
		c0.6-0.6,1.6-1.3,2-1.8c0.5-0.7,3.3-4.1,3.8-5.2c-0.1,0.1,1.1-5.2,1.1-5.1c0.2-4.2-0.2-3.1-1.3-6.1c-0.4-1.1-1.1-3.1-1.5-4.6
		C364.7,100.6,367.3,99.8,363.8,97.5z"/>
	<path id="vn-22" d="M448.4,249c0.7,1.2,0.9,2.3,1.7,3.2C447.7,255.4,447.2,250.1,448.4,249z M468.1,245.2c0.1,0.7,0.3,1.4,0.5,2.3
		c0.8-0.5,0.6-0.9,0.9-1.6c1,1.3,0.1,2.9,2.3,1.9c0.1,0.9,0.1,2.5,0.1,3.4c-1.4-0.5-2.2-0.5-3.7-0.9
		C467.6,248,467.4,246,468.1,245.2z M467.9,241c2.2,0.7,4.3,0.4,4.8,2.6c0.3-1-0.3,1-0.2,0.8c-2,0.9-4,0.8-4.7-1.7
		c-0.1,0.3-0.2,0.7-0.3,1C466,242.3,467,242,467.9,241z M483.8,239.5c-0.7,1.9-1.9,2.4-3.8,2C481.1,240.6,482.4,239.9,483.8,239.5z
		 M464.8,239c1.2,1.6,1.7,3.2,1.5,4.7c-1.3-1-2.1-2-3-3.4c0.5,0.3,1.1,0.5,1.6,0.8C464.9,240.4,464.8,239.7,464.8,239z M466,238.3
		c1.1,0.5,1.8,0.4,2.6,1.3C466,239.6,466.1,238.6,466,238.3z M421.8,246.5c-1.4,0.1-4.7,0.3-5.5-0.8c-1.6-2.1-0.8-5,1.6-5.2
		c-0.4-0.8-0.3-1.6-0.9-2.5c3.9-0.7,4.5,2,5.8,4.1c0.5,0.8,2.4,3.4,2.2,4.2C424.6,248.8,422,249.8,421.8,246.5z M428.6,235.9
		c1.7,1.3,2.9,2.6,4,4.4c-1.5,0.2-3.3,0.1-4.7,0.3C426.9,238.7,426.7,236.8,428.6,235.9z M472,234.6c-0.2,3.3-4.2,4.9-7.1,2.8
		C466.9,237.1,470.2,237.1,472,234.6z M487.3,234.3c-0.2,3.5,0,2.5-2.2,5.8c-1.5,2.2-3.5,7.4-5.7,9c0.4-2.9,2.3-4.8,0.5-7.1
		c2.6,0.6,3.9-1.1,4.7-3.5c-0.1,0.3-0.1,0.5-0.2,0.8C485.3,237.8,486,236,487.3,234.3z M477.8,234.2c0.4,4.6-6,4.7-6.8,7
		c-1.5,0-1.5,0.2-2.9-0.8C473.9,238.8,473.4,236.4,477.8,234.2z M480,233.5c0.6,2-0.9,3.6-3,4.4C477.9,236.3,478.9,234.9,480,233.5z
		 M504.5,229c3.2,3.8,4,5.2-1,7.8C508.6,233.1,500.7,232.6,504.5,229z M487.3,227.1c-1.8,3.2-0.1,6.6-3,10c-2,2.4-7.4,5.6-9.9,4.6
		c0.7-0.5,1.4-0.9,2.1-1.4c-1.4,0.8-2.8,0.9-4,1.8c1.7-3.4,7.7-3.3,8.8-8.3c-0.9-0.3-0.5-0.2-1.2-0.8
		C482.3,232.1,484.2,228.3,487.3,227.1z M514.1,227c0.5,0.7,0.9,1,0.8,2.1c-2.6,0.7-3.3,3.2-5.4,4.5
		C509.2,230.9,511.5,227.2,514.1,227z M489.4,220.1c-0.2,3.4-4.3,6.6-7.5,7.9C483.3,225.2,485.6,219.4,489.4,220.1z M494,219.3
		c-1.3,3.9-3.1,12.4-6.1,14.9c0.3-1,0.7-1.1,1-1.8C487.2,229.3,491.8,222.3,494,219.3z M473.8,213.9c0.8,2.1,0.6,4.1-1,5.2
		C471.9,216.9,472.1,214.8,473.8,213.9z M498.4,210.6c-0.2,2.3-1.1,5.8-2.2,7.6C495.8,215.5,496.3,212.4,498.4,210.6z M494.7,206.2
		c-0.3,1.6-2.1,2.9-4.3,2.4C491.7,207.5,493.1,206.7,494.7,206.2z M478.7,205.1c7.9,3.1,4.2,8.9,13.3,5.4
		c-0.8,3.9-11.6,13.5-14.2,12.4c-1.6,2.2-3.8,3.8-6.2,4.8c-0.4-0.7-1.1-2.5-1.4-3.3c3.3-1.6,3-5.4,4.4-8.8
		C475.7,212.9,477.2,208.1,478.7,205.1z M488.3,204.7c0.6,0.5,1.2,1,1.8,1.5c-1.8,0.8-3,0.7-4.8,0.1C486,205.2,487,205,488.3,204.7z
		 M485.1,204c0.9,0.1,1.7,0.3,2.4,0.5c-0.8,0.5-1.7,1.1-2.6,1.5C483.7,204.8,484.7,204.9,485.1,204z M500.3,202.5
		c-0.8,0.6-1.3,1.9-2.7,2.3c-0.1-0.2-0.2-0.5-0.3-0.7C498.2,203.2,499.2,203,500.3,202.5z M510.6,197c0.1,2.6-5,3.8-7.5,5.3
		c0-1.4-1-0.2-2.4,0C503.9,200.4,507,198,510.6,197z M527.5,193.1c-1.1,0.8-4.2,3.9-5.3,4.2c-3.1,0.9-5.3-1.5-9,1.6
		c0.6-1.1,0.3-1.6,1.5-2.8c-1.1,0.1-1.9,0-3,0.3C515.1,193.9,523.2,193,527.5,193.1z M480.3,168c1.5,1.9,2.2,3.8,0.9,5.7
		c1,0.3,1.9,0.6,2.8,0.7c2.5,0.3,2-1.7,3.6-1.9c2.7-0.3,5.6,0.6,8.8,0.3c5-0.5,12.3-7.2,16.6-3c2.1-2.2,1.9-0.3,3.4,1
		c0.9,0.8,3,3.5,3.5,4.3c2.5,3.5,2.7,3.6,6,3.8c3.5,0.3,5.4-2.1,7.7,1.2c-1.1-0.5-2.2-0.8-3.4-1.3c0.5,0.7,0.9,1.4,1.3,2.1
		c-0.5-0.1-1-0.3-1.5-0.4c0.3,0.4,0.5,0.8,0.8,1.2c-1.3,0.6-1.5-0.1-2.7-0.2c1.2,0.2,2,1.1,3.1,1c-1,0.5-1.9,1.2-3,1.7
		c2.1-0.1,4.3-1.1,5.7,0.6c-4.2-0.3-7,2.1-9.6,5c0.5-1.2,0.7-2.7,1.3-3.7c-1.3,0.8-3.1,3.5-4.6,3.2c-3.4-0.6-1.2-4.3-0.3-5.3
		c-2.3,0.4-1.3,0.6-1.6-1.2c-2.5-0.1-4,2.7-5.3-0.6c-0.3,1.2-1.1,2.3-1.4,3.5c-0.7-1-1-3-0.8-4.7c-0.2,1.3-0.9,2.9-1.2,4.1
		c-0.8-1.3-2.1-2.1-2.7-2.8c1.1,1.2,0.8,2.2,1.5,3.6c-2.4,1.3-2.6,5.1-4.7,6.8c-1.9,1.5-7.9,2.8-9.5,2.6c1.1,4.8-7.6,13.8-9,4.8
		c0.1,0.4,0.1,1,0.2,1.5c-0.5-0.1-1.1,0-1.6-0.1c1,0.5,1.7,0.5,2.2,1.5c-2.5,0.4-1.5,0.6-3.2-1c-1.1,2-3.1,2-4.7-0.5
		c0.1,0.5,0.2,0.9,0.3,1.4c-0.8-0.2-1.6-0.5-2.4-0.7c0.4,0.4,0.8,1.5,1.2,2c-3.5,2.7-3.8-0.2-5.8-1.9c0.8,2.5-0.4,3-2.4,2.3
		c0.7,2.4,2.2,3.1,4.6,2.4c-0.1,0.2-0.2,0.5-0.3,0.7c0.7-0.3,1.5-0.6,2.2-0.9c0.5,2-3.5,6.8-5.2,8.1c0.6-0.1,1.3-0.3,1.9-0.4
		c-1.3,3.7-0.4,7.9-3.7,9.6c6.5,11.9-12.5,3.6-12.7,12.2c-0.3,0-0.7,0-1,0c0.1-0.5,0.2-0.9,0.3-1.4c-0.6,1.7-0.9,1-0.8,2.9
		c-2.3,0.8-4.9,1.6-4.9-0.8c-1.2,0.4-6.6,0.3-6.9-0.4c-1-2,2.9-4.6,3.1-6.2c-1.7,2.8-5.3,4.1-5.5-0.1c-1.5,0.5-1.7,0.4-2.5,1.7
		c2.3,0.1,3,1.6,4.4,3.4c-1.6,2-8,1.7-10.5,1.4c-2.2-0.3-4.7-1.9-5.1-3.8c-2.6,1.1-1.6,1.3,0.2,2.4c-0.6,1.4,0,9.5-3.1,9.1
		c1.2,0.2-4.9-6.3-4.8-6.2c-1.2-1.3-5-1.8-1.1-4.3c-1.8-0.3-4.3-1.4-6.7-2.2c-2.5-0.9-7-0.7-9.1-1.8c-4.3-2.2-4.1-4.5-9-2.7
		c0-0.5,0.2-0.7,0.1-1.3c-1.6-0.2-2.7-0.6-4.5-0.7c-0.3,0-0.7,0.1-1,0.1c-3-4.4,0.5-4.7,2.3-7.7c1.1-1.7,1.8-5.4,1.9-7.6
		c3.5-0.6,9.5,8.5,12.6,4.3c4.4,2.5,12.3,2.6,17.2,2.4c-2.6-4.1,2.8-3.2,4.4-2.9c4.4,0.9,4.2,1.4,6.6-1.4c1.9-2.2,0.9-5.7,1.6-7
		c1.1-2,4.8-2.1,5.1-5.2c3.2-2.3,5.5-3.6,8.9-4.2c1.1-0.2,2.5,0.4,3.8,0.3c0.9-0.1,2-1.5,3.1-1.4c-0.1,0,3.6,0.9,2.9,1.2
		c3.6-1.4,0.2-14.1-3.1-16.5c2.9-0.8,4.9-2.1,7.2-3.2c2.2-1.1,4.6-0.8,7.1-2.4C474.1,174.2,474.9,166.3,480.3,168z"/>
	<path id="vn-17" d="M317.3,262.4L317.3,262.4c1.5,1.7,2.3,4.3-0.3,4.3c0,0,0.2,1.9,0.5,1.3c0.8-0.4,1.9-0.3,2.8-0.5
		c0.1,0.6,10.3,11.3,10.7,11.2c0.7,1.4,1.8,1.5,2.6,2.6c0.9,1.2,0.3,3.8,1.2,5.6c-2.6,0.8-5.1-0.2-6.2-3.3c-1.5,2.9-2.2,0-3.2,2.6
		c-0.7,1.9,1.3,4.8-0.9,5.9c-0.7-2-2.3-4.9-5.6-4.1c1.1,1.7,6.7,8.9,0.4,9.6c-4,0.5-7.9-5.7-13.3-5.1c-4.5-0.1-13.8-1.4-19-3.9
		c-0.1,0-0.2-0.1-0.3-0.1c-2.5-1.7-3.7-1.8-6.4-3.1c1.4-2.5-1.9-6.2-4.3-7.5c-1.5-0.8-2.9,0.3-3.8-0.2c-1.2-0.7-0.7-1.9-1.9-2.6
		c-6-3.7-8.5-1.6-15.2-3c-0.9-4.1-7-12.9-12.1-7.5c-1-1.8-1.1-3.8,0.3-4.9c-1.3-2.4-1.6-4.5,1.6-5.5c2.6-0.8,4.6,1.5,6.9,2.2
		c1.6,0.5,4.5,1.6,6.1-0.1c-0.5,0.5-1.8-4.1,1-6.2c-1.3-0.2-2.3-1.2-3.6-1.2c5.3-4.2-6.2-14.7-9-19.4c-1.7-2.8-4.4-6-0.8-8
		c3.2-1.8,5.4,0.5,2.9,3c2.6,0.9,9.6,0.9,9.6,5c4.5-1.1,5.2,5,9,6.8c3.1,1.4,5.4-0.8,7.9-0.6c-3.1,5.1,3.2,0.6,5.8,0.9
		c0.1,0.5,0.2,1,0.3,1.5c2,0.3,4.3-0.2,6.3-1.5c-0.6-2.8-2.2-5.4-1.8-7.7c0.4,0.6-0.1,0.7,0.2,1.2c2.1,0.1,3.5-0.1,5.5-1.4
		c1.9,2.1,13.6,1.6,12.2,7.1c-0.9,0.7-0.8,1.3-1.9,2.1c2.5,1.8,4.8,0,7.5,0.8c-0.6,0.2-1.7,1.1-2.7,1.6c0.2,2.3,0.5,0.4-0.4,2.8
		c2.5-0.2,4.4,2.3,3,4.8c0.7-0.8,0.9-0.4,1.5-1.3c2.3,0.8,2.2,0.7,3.7,0.4c0.9,1.4,0.2,1-0.5,1.4c-0.1,0.7,0,2,0.3,3
		c2.2,0.7,1.6,3,0.7,3.2c0.7,3.1,5.1,5.4,2.4,7.8H317.3z"/>
	<path id="vn-37" d="M305.9,292.4c3.5-0.3,3.6-0.3,6.8,1.2c2.3,1.1,4.2,4.1,6.5,3.8c6.2-0.7,0.7-7.9-0.4-9.6
		c3.4-0.8,5.1,1.9,5.7,4.1c2.3-1.1,0.3-4,0.9-5.9c0.9-2.6,1.8,0.1,3.2-2.6c1.2,3.4,4.9,4.3,5.9,2.8c3.3,4.2,4.9,5.8,8.7,7
		c-0.6,0.8-1.1,2.9-1.1,2.9c1.8,0.6,2.6,1.8,3.8,3.2c0.3,0.4-0.7,2.3-0.3,2.6c0.6,0.5,2.3,0.7,2.7,1.1c0.7,0.9,6-0.9,1.6,1.3
		c1.5,3.5,4.7,1.4,5.5-1.6c0.1,0.7,1.4,2.4,1.5,3.7c5.3-3.1,5.8,3.4,5.4,7.3c-0.4,3.8-3.6,7.7-4.9,10.8c-1.1,2.6-0.5,10-2.3,10.8
		c-2.5,1.1-4.4-3.3-5.8-4.3c-1.2-4.7,4.3-3.6,4-8.2c-0.2-3.9-6-0.4-9.5-2c-5.3-2.3-10.1-7.2-15.5-9.9c-4.7-2.3-7.7-5.3-11-8
		C312.6,299,307.4,298.1,305.9,292.4z"/>
	<path id="vn-34" d="M401.2,297.1c-0.3,1.2,0.1,1.7-0.9,2.5c0.4,0.6,0.7,0.4,1.1,0.6c-0.1,1.3-0.5,1.8-1,2.9c-1.7-2.3-0.3-4,0.7-6.5
		C401.1,296.8,401.2,296.9,401.2,297.1z M371.3,261.6c-0.7-0.5-1.3-0.4-1.9-1.1c1.3,0.2,2-0.2,3.5,0.3c-0.2-0.7-0.1-1.1-0.1-1.7
		c1,2.7,3.2,1.1,5.2,0.6c3.1-0.9,4.7-1.6,6.1-0.5c0.8,0.6-1,1.5-0.8,1.8c0,0,2,1.9,2.2,2.3c0.3,0.7,2.7,4.9,2.7,4.9
		c2.6,2,3.4-0.9,5.4,1.4c1.4-1.3,2.4-2.5,4.2-1.7c1-0.8,2.3-1,3.3-1.9c5.9,2.2,2.9,2.9,0.2,6.5c-3.5,4.8,0.7,5.4,0,10
		c-3.1,0.1,1.3,18.7-3.9,17.3c-3.1-6.2-4.9-0.3-8.5-0.5c-2.9-0.2-10.2-6-11.4-8.3c-1.3,1.3-4.3,5-6.2,4.7c-4.1-0.6,0.8-3.5,0.6-4.3
		c-0.2-0.7,1.1-1.1,0.4-2.3c-0.6-1.1-2.3-0.1-3-0.8c-1.2-1.3-2.1-0.1-3.3-2.1c-0.3-0.4,1.7-2.3,1.2-3.3c-0.8-1.8-2.9-0.8-3.8-2.4
		c-1.1-1.9-0.7-4.8-1.8-7c-1-2.1-2.7-2.3-3.5-5.2c-0.3-1.3,0.2-1.5-1.1-2.8c2.7-2.6,10.2,0.9,9.7-1.2
		C368.4,263.7,370.2,262.6,371.3,261.6z"/>
	<path id="vn-38" d="M248.7,327.7L248.7,327.7L248.7,327.7L248.7,327.7z M243.2,264.7c5.1-5.1,11.4,3.1,12.1,7.5
		c6.8,1.3,9.3-0.7,15.4,3c1.3,0.8,0.7,2,1.9,2.7c0.8,0.4,2.2-0.6,3.8,0.2c2.3,1.3,5.8,4.9,4.4,7.5c2.7,1.1,4,1.6,6.4,3.2
		c0.1,0,0.2,0.1,0.3,0.1c4.4,2.2,8.8,2.6,13.8,3c0.1,0,5.3,0.6,4.6,0.2c1.5,0.9,0.6,3.1,1.7,4.1c2.3,1.9,6.5,3.2,9.5,6
		c2.4,2.3,3.9,5.5,7.2,7.5c3.7,2.1,7.8,3.9,11.5,5.9c4.3,2.3,7.8,5.4,12.7,5.7c4.6,0.3,6.8-1.7,4.9,3.7c-0.6,1.8-2.3,2.8-3.4,4
		c-0.8,1-0.6,1.9-1.8,3.1c-0.4,0.4-1.4,0.4-1.7,0.7c-1.7,2.1-4.8,3.5-2,5.1c-3,3.4-1.4,6.5-2.3,9.2c-0.5,1.4-2.1,4.3-3.2,5.4
		c-1.9,1.9-1.5-0.5-3.1,1.3c-5.5,6.1-7.1,20.4-5,28.1c-6.4,0.9,1.8,9.9-0.9,13.4c-1.9-2.2-5,0.4-5.6-3.4c-2.1,2-5,2.9-6.1-0.1
		c-0.3,0.3-0.5,0.5-0.8,0.8c0.2-2.9-2.2-4.7-3.9-6.7c-3.1,3.6-4.3-2.7-6.5-4.8c-3.5-3.3-5.2-2.5-9.2-0.5c-1.8-2.8-3.3-0.1-4.9-1.6
		c-1.1-1-1.2-5.3-2-6c-3.5-3-4.3,1.2-6.8,4.1c-3.7-4.8,1.3-11.5-2.7-15.6c-1.8-1.8-5.8-0.9-7.9-3.8c-0.7-0.9-1.1-2.5-1.6-3.2
		c0.2,0.3-1.7-3.4-1.8-3.7c-0.4-1.9-1.2-5.4-0.3-7.3c0.9-2,4.6-2.1,4.9-3c1.2-3.9-3.2-5.6-5.8-6.4c-4.4-1.3-7.5,0-11.5-2.2
		c-2.9-1.6-4.3-3.3-8.1-4.3c2.3-3.1,5.8-5.8,7.9-9.3c-2.8-0.3-6.8-3.4-5.9-6.2c-6.3,3.1-7.7,0.1-12.4-2.3c-2.9-1.5-6.3-2.1-9.4-3
		c-0.9-0.3-5.1-1.3-5.4-1.5c-6.9-6.1,1-16.5,7.8-16.8c-1.9-1.9-5.2-6.4-6.3-6.3c-3.3,0.5-2,2.8-3,3.5c-2,1.4-3.5,1.3-6,2.3
		c-1.7,0.7-5.1,4.2-8.9,3.4c-5.8-1.2-1.8-6.3-6.7-6.8c0.4-1.8,0.7-3.1,1.1-4.5c7.9,1.3,11.6-8.2,16.2-11.1c0.9-0.6,2.7-0.1,3.5-0.4
		c0.8-0.4,2.8-3.7,2.8-3.8c1.4-0.1,4,4.4,4.3,5.5c3.7-2.5,5.2,3.3,8.9,1.3c0.5,0,1.1,0,1.6,0C238.3,267.5,241.8,266.6,243.2,264.7z"
		/>
	<path id="vn-40" d="M248.6,327.1c3.7,1.2,5.2,2.7,8.1,4.3c4,2.2,7,0.9,11.5,2.2c2.5,0.7,7,2.5,5.8,6.4c-0.2,0.7-3.6,0.9-4.6,2.9
		c-1,1.9-0.4,5.3,0.1,7.4c0.1,0.7,1.9,3.3,2,3.5c0.3,0.5,0.7,2.5,1.4,3.4c2,2.8,6.2,1.9,7.9,3.8c4,4.4-1.1,10.8,2.7,15.7
		c2.5-3,3.3-7.1,6.8-4c0.8,0.7,0.9,4.6,2.1,5.7c1.5,1.5,3-0.9,4.8,1.9c4.1-1.9,5.7-2.9,9.2,0.5c2.2,2.1,3.3,8.2,6.6,4.8
		c1.8,1.9,4,3.9,3.9,6.7c0.3-0.3,0.5-0.5,0.8-0.8c1.1,3,4,2.1,6.1,0.1c0.6,3.9,4.6,0.8,5.3,2.7c0.1,0.2-2.2,4.8-2.8,5.4
		c-1.4,1.5-2-0.1-3.3,2.4c-1.1,2.3-0.8,7.9,0.3,10c-4.2,2.7-4.8-0.2-8,2.3c-3.2,2.6-3.5,9.1-2.6,12.8c1.4,5.7,3.2,3.7,6.6,7.1
		c3.1,3.2,2.4,6.5,6.1,10c-5.1,2.7,4.3,8.5-1.9,9.1c-4-0.9-3.3,4.2-4.8,6.1c-2.4,3.1-3.6,1.7-7,2.6c-2.1,0.5-4.5,3-6.7,1.9
		c-2.3-1.1-1.3-4.3-4.2-5.1c-0.3-0.1-0.6-0.1-0.9-0.2c-3.3,1.1-6,3.5-10.2,2.8c-4.9-0.8-8.5-7.4-12.6-0.5c-1.2-1.2-2.2-0.5-3.6-1.2
		c1-4.6-1.1-5.6-4.9-8.3c-0.6-0.4,1.9-1.1,0.3-2c-1.3-0.8-1.7,0.2-2.6,0c-1.2-0.3-3.7,0.3-5.3,0.1c0.3-0.5,0.5-1,0.8-1.5
		c-2.5-0.4-7.8-1.6-9.9-2.8c-1.6-0.9-1.2-2.5-5.1-3.2c-2.4-0.4-5.6,0.5-8.5-0.1c-1.7-0.3-3.8-1.9-5.5-2.6c-1-0.4-3.9-1.6-4.9-2.2
		c-4.7-3.3-7.9-6.9-11.5-11.6c-1.1-1.5-3.8-3.7-5.8-4c-0.7-0.1-1.5,2.3-3.9,1.5c-1.6-0.5-1.8-2.6-2.7-3.7c-2.4-2.9-7.7-7.3-11.5-8.6
		c-1.9-0.6-3.4,1.5-5.7,0.1c-1.4-0.8,0.9-2.5,0.5-3c-2.3-3-4.5-3.4-8-5.1c-1.5-0.7-4.1-4-5.8-4.2c-5.2-0.6-6,2.5-10.7-1.3
		c-1.1-0.9-6.8-5.8-6.9-5c0.2-1.6,4.7-2.4,6-3.4c3-2.4,6.6-8.9,11.6-6c-0.3-2.1,0.5-2.3-0.6-3.6c1.5-1.6,1.8-2.2,2.5-4.3
		c3.3,1.4,2.4-4.4,1.1-7.1c-1.9-4.2-5.2-5.2-3.1-10.4c3.6,3.2,5,1.2,7.6,0.4c-0.6,0.2,1.4-1.6,1.3-1.6c0.4-0.2,1.9,0.1,2.5-0.1
		c2.8-0.9,11.2-1.2,11,2.5c1.6-0.9,5.5-3.4,7.7-3.1c2.6,0.4,1.2,1.7,3.1,2.9c1.7,1,3.7,1.1,5.7,2.3c1.5,0.9,0.6,2.7,3.1,3.2
		c1.7,0.4,2.6-1,3.9-1c8.1-0.1,5.1-1.2,8.8-6.8c1-1.5,2.5-4.7,4-5.6c1.8-1.1,4.4,2.2,4.2-1.8c2.5-1.6,4.9-0.2,6.5-2.5
		c0.9-1.3-0.1-4.2-0.1-4.9c0.1-1.8,0.6-5.9,1.8-7.7C246.2,331.8,252.7,330.5,248.6,327.1z"/>
	<path id="vn-42" d="M326.3,444.7c3.4,3.9,4,13.2,6.9,18.4c3.3,5.9,7.6,8.5,5.3,14.9c2.2-1,2.2-3.4,3.2-5.5
		c3,6.6,9.6,15.9,16.5,18.6c3.8,1.5,8.3,2.1,11.7,4.9c2.6,2.2,7.6,7.3,9.2,9.9c0.4-0.1-1.8-0.4-1.5-0.4c0.3,0.5,0.8,1,0.9,1.6
		c2.4-1.8,3.1-0.1,5.4-0.5c1-0.2,0.1-2.3,2.6-1.9c-3.5,3.6,3.5,13.4,6.9,15.3c-4.7,0.3-5.1,0.3-8.6-1.1c-8-3.2-6.4,1.1-11.9,3.5
		c-1.8,0.8-6.8,1.8-10.1,1.9c-3.5,0.1-16.8-3.6-8.3-6.8c-1.1-1.6-1.8-2.4-2.9-3.8c-2.9,1.6-2.7-1.5-4.9-2.7c-1.4-0.8-1.7,0.4-3-0.3
		c-1.7-0.9-1.8-1.8-3.8-2.1c-2.6-0.4-3.2,1-6.1,1.4c2,2.4,1.1,2.8-0.7,4c1.2-0.8-6.1,0.7-5.7,0.7c-1.5,0.1-2.3-2.2-4.1-1.6
		c-1.5,0.6-0.1,2.6-1.5,3.2c-1.9,0.9-4,0.7-6.3,0.7c-1.4-0.9-4.6-1.1-5-1.7c-1.2-1.6-0.3-4-1.3-6.1c-0.7-1.4-2.1,0.6-3.1-0.5
		c-0.5-0.5-0.9-3.1-1.3-3.9c-0.3-0.5-1.3-0.9-1.8-1.8c-0.3-0.6,0.3-3.1-0.6-4.4c-0.7,0.7-0.9,0.7-1.5,1.2c0.2-0.5,0.3-1.6,0.5-2.2
		c-4.5-1.6-7.4,5.9-9.9,2.9c-0.9,0.4-4.6-0.6-5.4-2.6c-0.3-0.7,0.2-12.4-2.2-3.7c-0.2-2.3-1.7-2.8-4-1.7c0.6-3.8-2.2-3.1-3.6-4.8
		c-1-1.1-2.2-1.5-2.7-2.5c-0.5-0.9,0.1-3-0.5-4.1c-0.9-1.5-4-2-5.5-5c-1.5-3.1,0.6-21.2,6.4-16.4c1.4,0.7,2.4,0,3.6,1.2
		c4.1-6.9,7.7-0.3,12.6,0.5c4.3,0.7,6.9-1.7,10.2-2.8c0.3,0.1,0.6,0.1,0.9,0.2c2.7,0.9,2,4.1,4.3,5.1s4.6-1.4,6.7-1.9
		c3.5-0.8,4.6,0.6,7-2.5c1.4-1.8,0.9-7.2,4.8-6.1C330.6,452.8,320.6,445.8,326.3,444.7z"/>
	<path id="vn-44" d="M314.9,517c2.4,0,4.3,0.2,6.3-0.7c1.2-0.5,0-2.6,1.3-2.9c2-0.5,2.7,1.4,4.4,1.3c0.6,0,2.5-1.1,2.8-1.1
		c-0.8,0,3.4-0.1,2.6,0.5c1.9-1.1,3.3-1.3,1-4c2.7-0.3,3.4-1.9,5.9-1.5c2.1,0.3,1.9,1.7,3.4,2.4c1.3,0.6,1.9-1,3.1-0.3
		c2.5,1.6,2.1,4.4,5.2,3c1,1.5,1.8,2.1,2.9,3.8c-8.1,3.4,4.3,6.7,7.9,6.7c2.3,0,3.3-1.4,5.4-1.4c3.4-0.1,2.4,0.8,5.1-0.4
		c5.4-2.4,3.6-6.9,11.5-3.5c3.6,1.5,4.5,1.3,9.1,1.1c0.3,5-7.1,7.9-5,16c2.1,8,7.2,14.5,11.4,21.6c9.2,15.5,22.7,27,37.2,37.2
		c-2.8,2.9-5,4.2-8.2,6.4c-1,0.7-3.2,1.2-3.8,1.8c-0.8,0.8,0.6,2.4-0.9,3.6c-1.6,1.4-2.7,0.3-4.4,1.8c0.6-0.5-2.2,4.6-2.1,4.4
		c-1.2,3,0.7,4.3-3,4.7c-2.3,0.2-3.5-2.9-5.2-3.2c-2.2-0.4-4.6,3.4-7.6,1.3c-1.4-1-1.6-3.1-1.2-4.3c-2.4-0.7-2.6,0.3-4.1-1.8
		c-1.5,5.1-5.5,2.1-7.8,0.5c-2.1-1.5-1.5,0.8-3.2-2.4c-1.3-2.4-0.4-4-1.3-5.6c-1.2-2.2-3.5-4.2-4.8-6.2c-1.1-1.8-3.1-4.5-4.7-5.3
		c0.1-0.3,0.2-0.7,0.3-1c2.4-0.2,1.1-0.4,2.4-1.5c-0.8-0.2-1.6-0.3-2.4-0.5c0.4-1.5,0.6-6-3-5.2c3.7,8.2-9.5-0.1-10.8-1.2
		c-4-3.5-8.1-8.1-11.9-12.6c-4.1-5-16.4-24.7-24.4-21.1c0.1-3.2-1.1-6-2.8-8.2c-0.8-1-2.5-1.6-3.4-3.2c-0.7-1.4,0.7-2.8-0.5-4.5
		c-1.4-2-5.4-2.3-6.3-4.2C310.4,524.7,314.4,519.1,314.9,517z"/>
	<path id="vn-45" d="M436.7,594.9c3,2.5,9.7,5,11,8.1c1.2,2.9-0.7,5.3,1.5,9.3c4.8,8.8,15,15.8,22.9,21.9c-2,1-3.1,2.5-2.7,4.1
		c-1.8,1.3-2.6,2.8-3.5,3.4c0.7,0.7,0.5,1.1,0.9,1.8c-1.7-1,0.1-0.2-2,0.2c0.2,0.6,0.4,0.7,0.8,0.1c3.2,8.7-9.6,4-14.6,6
		c-0.4,0.1-0.8,0.2-1.2,0.3c-2.2,2-4.7,2.4-7.4,2.4c-0.8,3.4,2.3,3.4,3.7,5.2c2.1-0.4,4.2,2.4,2.2,4.4c-1.9,1.8-4.2-2.1-6.5,1.1
		c-1.9,2.6,2.2,5.4-3.2,6.6c3.1,6.6-0.8,3.9-4.9,5.4c3.2-7-8.5-5.2-5.7-11.4c-4.1,0.8-0.3-4.6-1-6.9c-0.4-1.4-1.5-6-5-4.5
		c-0.3,0.1-2.3,7.3-2.6,8c-1.5-1.2-0.7,0-2.8-0.4c1,2.7-0.9,4.5-2.8,5.3c-1.2-2.3-5-3.7-5.7-4.1c-0.8-2.3-0.1-1.1-1.4-2
		c0.9-2.8-3.4-6.1,1-8.1c-1.4-3.1-5.2-4.7-7.9-3.8c0.9-2.4-1.9-4.6-2.6-7.8c-1.1-4.9,1.4-11.4-0.4-16c-0.7-1.8-3-2.7-3.3-4.4
		c-0.3-1.8,1.8-1.7,1.8-2c0.2-0.8,1.2-4.3,1.3-6.7c1,0.2,2.8,0.6,3.8,1c-0.4,1.1-0.4,3.1,1,4c3.2,2,5.3-1.5,7.5-1.2
		c1.7,0.3,3.1,3.2,5.2,3.2c3.8-0.1,2-1.8,3.4-4.5c0.6-1.2,1.4-2.2,2.4-3.4c0.2-0.2-0.2-2.1,0.2-2.6c0.9-0.8,2.2,0.4,2.6-0.1
		c1.8-2.2,2.4-2.9,4.2-4.5C430.1,599.3,433.5,597.9,436.7,594.9L436.7,594.9L436.7,594.9z"/>
	<path id="vn-46" d="M498.6,652.8c6.9,5.3,13.5,13.1,21.1,17.1c-2.1,2.4-4.5,0.1-6.1,1.1c-1.1-3.3-9.2-13.1-11.7-14
		c-0.6-2.7-3.4-3.5-5.3-5.7C497.3,651.8,497.9,652.3,498.6,652.8z M493.9,650.3c1,0.6,1.7,0.5,2.4,1.5
		C495,651.6,493.7,650.2,493.9,650.3z M472.2,634.4c6.5,5.2,14.6,10,20.5,15.8c-4.7-1.5-13.7-6.6-17.3-8.7c0.4,2.8,4.7,4.4,7,5.9
		c1.6,1.1,5.6,3.4,7.8,2c0.9,2.3,2.9,3.3,5.1,2.5c0.1,0.3,0.1,0.6,0.2,0.9c-1.8,1.3-1.9,1.2-1.4,3.4c0.8-0.7,1.1-0.6,2-1
		c-0.7,1.4-0.2,1.2-0.5,2.7c0.9-1.1,2.4-1.7,3.3-2.8c2.9,4.4,13.6,10.5,13.3,16c-1.4-1.5-3.2-3.3-4.7-3.8c0.3,1.8-0.3,2.8-0.9,4
		c1-0.4,1.4,0,2-0.8c-0.4,3.3,2.3,8.2,6.4,5.2c0.3,4.4,7.2-0.3,5.4-5.2c0.7,0.1,11,6.8,8.6,1.7c0.2-0.2,0.3-0.4,0.5-0.6
		c2.1,2.5,4.7,7.5,5.9,11c-0.9-2.5-2.5-3.6-4.6-2.8c-4,1.5,4.4,3.5,3.1,3c3.4,1.6,7.5,0.7,11.2,1.5c-6.1,0.6-8.3,3.2-14.2,1.9
		c-0.8-0.2-2.4-1.3-2.7-1.3c-1.1-0.1-3,1.1-3.2,1.1c-1.8-0.4-5.1-1.6-6.4-1.2c-4.5,1.3-3.8,17.3-11.3,13c-0.2,1.7-1.2,1.4-2.3,2.3
		l0,0l0,0c-6,5.2-4.5,2.1-11.8,0.6c2.3-6.6-7.5,1.7-8.1,1.8c0.4,0-6.4-2.5-5.2-1.5c-2.5-2.1-0.2-2.7-2-5.6c-2.5,0.6-4.4,2.9-6.3,1.6
		c-3.7,3.9-6.4-1.3-9.3-4s-4.7-1.3-8.5-3.4c-4.8-2.7-1-6.3-2.3-9.6c-1.6-4-7.2-6.2-9.9-3.7c-2.3-1.5-2.3-4.3-2.7-6.3
		c5.3-1.3,1.3-4.1,3.2-6.5c2.4-3,3.9,0.5,6.1-1c2.4-1.7,0.6-4.9-1.8-4.4c-1.2-2-4.5-1.7-3.6-5.2c2.8,0.1,5.3-0.2,7.4-2.3
		c0.4-0.1,0.8-0.2,1.2-0.3c5.3-1.8,17.6,2.6,14.6-6c-0.4,0.6-0.6,0.5-0.8-0.1c0.5-0.4,0.9-0.8,1.4-1.2c0.2,0.3,0.4,0.7,0.6,1
		c-0.4-0.7-0.2-1.2-0.9-1.9c1-0.7,1.7-2.1,3.5-3.4C469.5,637.1,470.5,635.5,472.2,634.4L472.2,634.4L472.2,634.4z"/>
	<path id="vn-49" d="M573,705.9c1.6,0.7,3.2,2.5,2.8,4.7c-2-1.2-3.2-3.1-5-4C571.8,705.3,572.5,706,573,705.9z M479.1,701.1
		c2.2-2.6,5,1.3,8.4,0.1c0.1,0-0.1-2.2,2.1-2.9c2.6-0.8,4.3-1,3.2,2.1c2.6,0.4,5.2,3.8,7.3,3.4c1.4-0.3,6.3-5.9,6.6-6.8
		c1.2,0.7,3.3,0.7,4.1,0.9c2.1-0.4,3.8,0.7,5.8,0.9c1.1,0.1,0.7,1.6,1.7,1.5c1.3,0,3.7-2.4,5.3-2.8c-0.7,2.8,1.4,2.8,1.4,4.5
		c0,1.5-1.9,3.7-1.9,4.7c0.1,5.2,3,3.1,6.6,3.1c4.3,0.1,11.7-2.3,13.3-0.6c0.2-0.8,0.3-1.6,0.5-2.4c1.8,0.7,1.8-0.1,2.4,2.2
		c2.6-2.5,2.9-2.2,5.3-1.6c2.1,0.5,9.5,5.1,10.7,7.8c-0.5,0.2-0.8,0.3-1.5,0.6c0.1,0.2,0.3,0.5,0.4,0.7c0.7-0.3,1.5-0.6,2.2-0.9
		c1.3,10.2,12.7,30.2,22.3,34.8c-2.3-0.3-4.4-2.6-6.5-3c0.4,0.3,0.7,0.7,1.1,1c-1.5,1.5-1,3.1,0.8,4.4c3.5-2.1,1.3,1.5,3.1,2.4
		c2.3,1.1,4.8,1,3.2-1.4c0.5-0.9,1.5-1.4,1.9-2.2c0.3,0.7,0.4,1.9,1.1,2.6c-0.4-0.5,3.1,6,3.2,5.5c-0.5,3.9-6,2.5-8,3
		c-4.3,1.2-16.4,8-19.8,3.8c-2.6,4.3-4.9,0.6-9,2.5c-2,0.9-5.1,5.8-3.2,6.5c0.6,1.1,1.8,1.3-0.6,2.5c3.2,2.3-2.4,7.7-3.4,10.7
		c-0.7,2.4-0.2,5.2-3.5,5.1c-2.1,0-3.4-5.1-6-1.4c-2.3,3.3,3.8,5.1-1,7.9c-2.6,1.5-4.3,0.5-6.4-0.6c-0.8-0.4-4.6-2.4-5-2.7
		c-1-0.7-1.3-0.2-2.3-1.1c-2.8-2.4-2.5-4.7-0.7-6.9c2.9-2.5,2.7-5,0.9-7.3c-1.2-1.6-6-4.5-7.6-4c-2.4,2.2-11-2.2-14.2-2.2
		c-0.2,0-0.5,0-0.7,0c-0.3-1.8-1.1-4.8-0.3-7c-6.9,1.4-4.8-9.4-9.7-10.1c-3.7-1.5-4.4,3.3-8.3,0.6c-2.3-1.7-0.6-4.7-4.1-6.8
		c-3.1-1.9-4.4-0.2-5.8-0.5c-4.5-0.9-4.6-2.6-5.2-7.4c-3.6-0.1-0.1-2.6-1.9-4.1c-2.4-1.9-4.8,0-6.4-2.9c-1.4-2.4,1.8-11.3-5.2-8.6
		c-0.1-3.4,0.2-7.9,1.8-9.7c0.1-0.2,6.7-2.5,7.5-2.8c3.1-1.2,6.1-0.9,8.4-3.2C476.6,710.4,478.4,704.8,479.1,701.1z"/>
	<path id="vn-62" d="M493.3,757.9c5.1,0.6,2.8,11.3,9.8,10.1c-0.7,2.2,0.2,5.2,0.5,7c0.2,0,0.5,0,0.7,0c3.7-0.1,10.9,4.1,14.2,2.2
		c1.7-0.6,6.4,2.4,7.6,4c1.8,2.3,2,4.8-0.9,7.3c-2.5,2.8-1.3,5.6,1.9,7.8c1,0.7,3.9,1.1,5.3,1.8c0.3,0.2,3,2.6,3,2.6
		c1,0.3,5.7-1.1,6.1-1.6c1-1.6-1-3.4-0.4-5.5c1.8-5.9,2.9,0,7.8-0.2c2.2,2.3,6.1,7,7.6,9.4c0.6,1.7,4.7,8.5,7.4,10
		c2.1,0.5,2.9,1.6,4.5,2.2c1.6,0.6,2.7-0.7,4.2,0.6c2.4,2.1,1.7,3.4,1.5,6.3c-0.1,1.2-3.3,6.1-3.1,7.2c0.7,3.7,4.1,0.4,5.6,5
		c-1.8,3.1-3.1,4.4-7.2,3.6c-3.1-0.6-5-4.5-6.8-4.7c-5.7-0.4-0.9,6.8-1.7,8.3c-2.4,2.7-7.9,7.6-7.2,11.1c-4.8,0.8-11.1-0.1-13.4,4.1
		c0-1-0.4-0.1,0.2-1.2c-4.3-0.8-2.5,2.2-6.3,2.5c1.8,2.1-1.4,2.9-1.7,6.1c-3.2-1.8-2,1.1-3.9,1.8c-1.3,0.5-3.2-0.4-5,1.5
		c-3.3-1.7-7-7.3-11.2-3.2c-1.5,1.5,0,3.1-2.8,4.8c-1.5,0.9-2.8-2.3-4.2,1c-2-1.1-4.5-1.4-6.6-1.9c1.1-3-3-10.5,2.8-9.7
		c2.2-3,1.2-6.4-2.1-8.8c3.7-5.7-4.1-3.4-6.5-2.8c-3.5,0.8-6.4-0.9-10.7-0.5c0.2-1.9,1-3.9,1.3-5.1c0.2-0.8,1.2-2.3,1.3-3
		c0.2-1.1-1.7-2.2-1.3-3.4c0.6-1.6,1.9-1.1,2.4-2.8c0.4-1.3,0-4.3,1.1-6.4c-0.5-1.5-0.7-3.4-3-3.5c1.7-2,1.4-5-1.7-6
		c2.7-4.3,8.9-6,5.8-10c-2.9-3.8-7.2-3.8-9-8.4c-0.1-2.2,0.7-2.1,3.3-3.5c1.3-0.7,1.6-2,3.3-2.3c2.4-0.4,4.3,4.5,4.8-0.1
		c4.4,1,0.8-0.6,1.2-2c-0.3-0.5-0.6-1-0.9-1.4c0.7-0.6,1.5-1.1,2.2-1.7c0.1-0.8-0.9-1.9-1.4-2.4c3.4-1.2-1.4-4.6-1.3-7.3
		c3.4,1.1,2.8-6.1,2.5-8.6c-0.3-2.2-0.5-3.9-2.5-7.3C491.9,760.2,492.3,758.8,493.3,757.9z"/>
	<path id="vn-51" d="M600,758c0.6-0.2,0.9,0.1,1.4-0.6c-0.2,2.5,0.8,7.6,4.3,6.6c0.5,2.5-0.4,5.2,2.5,8.8c0.7,0.9,7.9,3.4,1.5,4.2
		c0.2,0.3,0.5,0.5,0.7,0.8c-6.9-1.1,0.8,20.9,2.3,24.7c2.7,6.9,6.8,12.8,10.1,19.3c2.8,5.6,0.1,8.4,1.9,14.2c-5.4-3-4.3-8.6-11-10.4
		c-3.2-0.9-2.4-0.3-6.1-0.1c-2.1,0.1-3.7-0.3-4.8-0.7c-1.8,3.4-3.4,0.4-5.4,2c-2.5,1.9,0.4,0.5-1.2,4.1c-1.1,2.4-3.1,6.4-5.3,1.3
		c-1,1-2,1.2-2.4,1.5c-1.4,2.1-3.3,2.2-3.5,4.6c-4.1,2.1-5.5-2.5-9.6-4.9c0,0-3.2-2.4-2.8-2c-0.6-0.7-1.8,0.8-2-1.2
		c-0.3-2.2,4.8-3.2,1.2-5.6c2.6-3.1,3.8-5.1,0.6-7.8c-1.4-1.2-5.6-3-8.8-3.5c-2.6-1.5-6.9-8.4-7.5-10.1c-1.8-2.5-5.2-6.8-7.6-9.3
		c-0.3-4.4,1.8-6.2,3.6-10.1c1-2,3.7-3.8,0.9-5.8c2.3-1.1,1.1-1.5,0.6-2.5c-2.2-0.8,1.2-5.6,3.2-6.5c4-1.8,6.5,1.9,9-2.5
		c2.5,3.4,11.6-0.7,15.3-1.8c2.5-0.7,11.5-2.1,12.4-5c2.4,1.7,4.7,1.6,6.3-0.8c-0.8-0.6-0.5-0.8-1-1.5
		C599.1,757.6,599.6,757.8,600,758z"/>
	<path id="vn-64" d="M482.6,846.4c4.2-0.5,7.2,1.2,10.7,0.4c2.5-0.5,10-3,6.5,2.8c3.2,2.5,4.4,5.8,2.1,8.8c-5.8-0.8-1.7,6.7-2.8,9.7
		c2.1,0.5,4.6,0.8,6.6,1.9c1.3-2.9,2.2-0.5,3.7-1.3c1-0.6,1.2-0.6,2.5-1.6c1.2-0.9-0.1-2,0.8-2.9c4.1-4,8,1.3,11.2,3.2
		c1.8-1.9,3.7-1,5-1.5c1.8-0.7,0.7-3.7,3.9-1.8c0.2-3.7,3.2-3.6,1.7-6.1c3.8-0.3,2-3.1,6.3-2.5c-0.6,1.1-0.2,0.2-0.2,1.2
		c2.9-4.2,8.1-3.2,13.4-4.1c-0.8-3.5,4.7-8.2,7-10.9c1.2-2.2-2.4-4.3-1.1-6.7c2.7-4.7,5.3,1.8,8.7,2.9c6.1,1.9,5.4-3.6,9.5-2.9
		c3.2,0.5,2.6,6.2,5.7,3.6c0.5,2.5,3.1,11.9-2.4,7.9c2,4.8,2.2,9.6,3.9,14.2c1.3,3.6,4.7,9.6,2,12.9c2.9,2.3,7.7,11.1,8.2,14.8
		c0.3,2.3-1.2,4.6-1,6.6c0.3,3.4,3.1,7.2,4.6,9.3c4.2,6,1.9,9.2,2.5,15.7c0.4,3.4,4.3,7.2,1.3,9c0.3-0.2-7.3-0.1-7.8-0.1
		c-1.2,2.3-4.9,5.9-3,8.6c1.5,2.2,4.6,0.6,7.1-0.1c0.5,2.4,0.2,6.9,1.2,9.9c1,3.1,5.5,6.3,5.7,8.7c0.4,5.6-2.8,9.7-5.8,11.5
		c-1.3-0.8,0.2-0.5-0.9,0.3c-0.9-0.5-0.4-0.1-1.6-0.5c-1.1,1.6-1.5,0.8-0.7,2.6c-3.2,2.3,0.3,4.3-1.2,7c-0.8,1.4-4.4,2.9-6.2,3.2
		c-3.3,0.7-5.4-1.2-9.3-1.9c-1.5-0.3-3.8,1-5.8-0.4c-1.2-0.8,0-2.5-0.9-4c-1.3-2.2-5.3-3.9-3.6-5.8c-0.6-1.7-3.2-3.8-4.5-6.2
		c-1.1-2,0.9-4.3-2.9-4.3c-2.3-1.7-1.3-4.6-3.2-6.6c-0.9-0.9-6.1-3.6-8-4c-3.1-0.6-4.7,0-7.4-1.2c-2.2-1-3.3-2.7-6.1-3
		c-0.9-0.1-5.8,0.1-5.8,0.1c-1,0.3-1.4,1.5-2.5,1.8s-2.2-0.1-3.1,0.1c-5.2,1.4-10.8-1.4-17,0c-0.6,0.1-2.8,1.8-4,1.9
		c-1,0.1-3.8-0.6-4.5-0.5c-1.8,0.4-4.5,2.7-5.1,4.4c-1,0.5-2.3,1.2-3.8,2c4.2-10.8,0.1-22.3-3.5-32.5c-0.5-1.4-2.2-6.3-3.1-7.4
		c-1.3-1.6-4.2-2.1-5.4-3.5c-2.6-2.9,1-7-1.8-8.7c3.7-3.1,0.2-3.7-0.2-5.9c-0.3-1.8,0.8-3.4-0.5-4.8c-1.3-1.4-1.4,0.2-3-0.7
		c-3.3-1.8-4.1-0.4-4.5-3.8c-0.1-1.4,1.4-3.6,1.5-3.3c-0.4-1.7-3.3-1.2-3.8-2.7c-1.6-4.8,5.4-9.8,5.8-14c0.3-3-1.1-5.2-0.3-7.6
		c1-3.2,4.2-4,4.6-7.7C480.9,852.8,482.3,849.4,482.6,846.4z"/>
	<path id="vn-52" d="M583.7,838.5c0.5-0.4,0.5-0.8,1.3-0.3c0.3-2.3,2-2.5,3.5-4.6c0.5-0.3,1.4-0.3,2.4-1.5c2.1,4.9,4.2,1.2,5.3-1.3
		c1-2.3-0.7-2.8,0.9-4.2c1.5-1.4,3.9,1.5,5.7-1.8c1,0.5,2.8,0.8,4.8,0.6c4.3-0.4,2.7-0.7,6.6,0.5c2.4,0.7,4.8,1.3,6.3,3
		c2,2.4,0.3,4.7,4,6.7c-2.9,1.2,1.1,6.3,0.9,9.1c3.6,0.3,2.5,5.8,3,8.5c0.7,3.5,2.8,7.3,5.6,9.9c-0.5,1.8,1,2.1,1.1,4.3
		c0.1,1.5-1.8-0.5-1.4,2c0.4,2.6,1.3,6.5,4.1,6.7c-3.2,2.9-3-3.8-6.3-3.1c0.7,3.5,3.3,5.4,5.4,8.3c3.1,4.3,2.3,7.9,3.8,10.8
		c-3.8,2.5,2.3,6.4,2.8,8.1c1.1,3.5,0,8-0.5,11.4c-0.5,0-2.5-0.4-3.3-0.7c0-2.4,2.5-2.5,2.5-5c-0.2,0.5-0.5,1-0.7,1.5
		c-2.5-2.1,0-5.7-3.4-8.1c-0.6,2.9-2,9.5,1.9,10.4c-5.6,0.4-2.2,6.5-1.9,9.3c-1.9-2-3.6-2.5-5.8-0.9c-2.2,1.5-0.7,6.3-4.2,3.3
		c-0.1,1.8-0.4,3.4-0.5,5.4c-1.3,0.9-4.6,0.8-5.8,1.6c-2.3,1.5-2.6,4.5-5.8,4.9c-4.4,0.6-6.3-3.5-11-1.8c-1-1.8-1.7-4.5-2.4-6.7
		c-1.5-4.7-1.2-6.7-1.1-10.1c0.1-5-1.5-8.7-3.5-12.2c-2.5-4.2-3.4-5.1-3.2-9c0.1-2.4,0.6-4.7-0.1-6.8c-1.1-3-5.4-11-7.9-13.2
		c2.7-3.3-0.7-9.2-2-12.8c-1.7-4.6-1.6-9.4-3.9-14.1C586,850.2,583.6,841.3,583.7,838.5z"/>
	<path id="vn-54" d="M603.7,928.5c0.6,1.6,1.4,1.7,1.6,3.1c4.7-1.7,6.6,2.4,11,1.8c3.2-0.4,3.5-3.4,5.8-4.9c1.2-0.8,4.5-0.6,5.8-1.5
		c0.1-2,0.5-3.6,0.5-5.4c4,3.4,3.1-7.6,8.5-3.2c3,2.4,1.7,8.8,7.4,10.4c-1.7,0.6-2.3,1.9-1,3.7c-2.9-1.8-4.2-7.3-7.2-11.1
		c-0.7,2.1,2.3,6.6,3.4,8.7c0.7,1.3,0.1,2.3,1.1,3.2c1.9,1.7,3.2,1.3,3-0.6c0.8,0.8,1,0.6,1,2c-2.6,0.5-0.1,4.9,1.8,3
		c-0.1-0.2,1.3,1.4,0.8,1.2c-1.3,0.6-1.6,2.3-1.6,4.6c-1.1,0.2-0.4-0.2-1.2,0.8c-6.2-3,0.7-2.1-0.7-5.2c-2.4-5.6-9.2,0.7-4.4,2.9
		c-0.6,0.4-1.1,0.8-1.8,1.1c0.4,1.4,1.9,1.5-0.4,1.4c1.6,0.7,2.1,3,3.7,4c1.7,1.1,4-1.8,3.9,2.4c-0.1,0-1.3-0.2-1.3-0.2
		c0,1.2-0.3,3.7-0.1,4.5c-0.6-0.9-1-1.7-1.5-2.5c-0.2,0.2-0.5,0.4-0.7,0.6c0,2.3-0.2,4.9,2,7.1c-0.3-2-0.5-3.7,0.6-4.4
		c3.2-2.1,1.3,3,1.3,3.1c0,4.9-1.3,8,1.7,13.5c2.9,5.3,7,10.5,9.8,15.2c1.2,1.9,4.7,9.1-1.3,7.2c0.6-0.9,1.1-2.4,1.5-3
		c-2.3,0.2-3.6,1.5-4.3,3.4c-0.5-0.9-1.6-1.4-2.1-2.3c-1.3,1.2-2.6,2-4.1,3c-1-1-1.6-0.1-3.1,0.3l0,0c-2.5-0.9-4.6,0.8-6.2,1
		c-3.5,0.4-5.3-1.7-7,3.6c-0.7-0.7-1.5-0.9-2.1-1.5c-2.3,4.4-2.1,3.2-4.6,4.3c-1.8,0.8-3.9,1.1-4.1,2.6c-0.8,0.5-1.6,0.9-2.4,1.4
		c-1.1-2.7-0.2-6.8-1.7-8.5c-2.2-2.5-5.1,0.7-9.1-1.5c-2.1-1.1-2-3-3.8-4.4c-1.1-0.9-3.4-0.2-3.7-0.5c-2.6-2.2-2.8-10.5-8-6.8
		c0.4-3.6-3-2.7-1.6-5.4c1.1-2.3,5.1-1.2,6.5-3.2c1.6-2.3-1.9-5.3,1.2-7.5c-0.9-1.7-0.5-1,0.7-2.5c1.2,0.4,0.7,0,1.6,0.5
		c1-1-0.3-1,0.9-0.3c3-1.8,6.3-5.8,5.9-11.4c-0.2-2.6-4.5-5.5-5.6-8.7c-1-3-0.7-7.4-1.2-9.9c-2.5,0.8-5.6,2.3-7.1,0.1
		c-1.9-2.7,1.9-6.3,3-8.6C596.8,929.2,602.5,929.1,603.7,928.5z"/>
	<path id="vn-66" d="M491.8,952.7c1.5-1,2.6-1.8,3.8-2c2-5.6,8.3-3.1,11.8-4.2c3.6-1.1,4.4-2.5,9.1-1.5c3.3,0.7,5.1,1,8.1,0.8
		c3.4-0.2,7.5-2.2,10.1-2.3c5.1-0.2,9.2,2,13.6,3.4c2.8,0.9,7.4,1.9,9.4,3.5c2.4,2,1.5,5.1,3.9,6.9c3.8,0,1.8,2.3,2.9,4.3
		c1.3,2.4,3.9,4.5,4.5,6.2c-2.1,2.1,1.1,2.7,2.1,4.1c0.5,0.7,1.4,1.3,1.9,2c0.7,1.1-0.8,2.8-0.1,3.4c1.6,1.5,6.2,1.2,8,1.7
		c2.5,0.7,4.9,1.3,7.1,1.8c0,1.8,2.3,2.2,2,5c4.1-2.9,4.6,2.4,6.7,4.3c2.6,2.4,2.5,1.6,5.9,3.6c1.1,0.7,0.7,3,2.3,3.8
		c1.5,0.8,4.3,0.3,5.9,0.5c3.3,0.5,1.7-0.9,3.4,2c2.2,3.8,2.5,9.6,0.3,14c-0.9,1.8-0.5,1.7-2.5,3.1c-1,0.7-3.5,1-4.7,2.7
		c-1.5,2.1-1.2,5-3.1,7.2c1.8,1.8,1.7,1.7,0.9,3.8c-2.5-0.6-5.6-3.9-6.8-4.1c-2.1-0.4-2.6,0.7-4,0.9c-3.9,0.7-5.8,3-6.4,7
		c-0.3,2.2,2,5.9,0.3,8.4s-7.5,4.4-8.5,2.9c-3.9-1.1-7.5,2.4-9.6-1.8c-0.4,0.3-0.4,0.6,0,0.9c-1,0.2-0.7-0.2-1,1
		c-0.2-0.3-0.4-0.5-0.6-0.8c0,2.1-0.5,1.4-0.7,1.4c-0.7,0.3-0.4,1.3-1.4,0.5c-0.1,1-0.3,1.7-0.2,2.5c-1.4-0.1-10.5-1.1-8.9,2.1
		c-1.7,0.4-2.2,1-3.9,2.3c-2.8-2.3-3.9,2.4-5,3.7c-0.5-1.2-0.4-1.2-1.2-2c-0.1,0.3-0.3,0.7-0.4,1c-0.2-0.4-0.4-0.7-0.6-1.1
		c-1.5,1-2.7,0.9-4,0.3c-0.8-2.5-3.3,0.5-5.4-0.6c-1.4-0.8-2.4-4.5-3.2-5.6c-2.2-2.8-5.6-6.1-9.3-4.6c-2.2-2.5-3.3-5.1-4.9-7.7
		c-0.1-0.4,0.1-0.7,0.6-0.7c-1.2-1.3-1.5-0.6,0.2-2.1c-0.3-0.1-0.7-0.2-1-0.3c0.5-0.8,0.4,0,0.5-1.1c1-0.1,1.2-0.6,2.8-1.3
		c0.4,0.2,0.8,0.3,1.2,0.5c7-3.8-0.4-6.2-3.6-8.4c-5.1-3.4-1.8-0.4-0.1-4.7c0.8-2,0.9-5.3-1.7-6.7c1.1-2.1,0.1-3.3-0.8-5.6
		c-0.2-0.5,1.2-2.1,1.3-2c-0.3-0.5-2.8-1.3-2.8-1.4c-1.5-3.3-1.5-5.1-5-4.8c-0.8,0.1-1.5,1.7-2.8,2c-1.9,0.4-4.6-0.1-6.5-0.4
		c-5.6-0.9-9.1-1-14.5-1.1c-0.7-3.2-3.6-4.5-5-7c-0.7-1.3-1-2.7-1.2-4.4c-0.2-2.1,1.1-3.8,1-5c-0.1-5.2-1.2-5.7,1.3-11.3
		C486.2,965.3,489,959,491.8,952.7z"/>
	<path id="vn-56" d="M641.6,1051.2c1.7,0.6,2.3-0.2,3.2,1.7c0.4-0.4,0.7-0.8,1.1-1.3c0.9,0.8,1.4,1.8,1.7,3.2
		c-1.4,0.1-2.1,0.7-4.1,0c0.2,0.4,0.4,0.8,0.6,1.2c-2.5-0.6-4-2.5-5.8-4.2c0.9,0.3,1.1-0.4,2.5,1.2
		C640.8,1052.3,641.7,1051,641.6,1051.2z M646.5,1014.1c1.2,0.5,4.2,0.3,4.9,0.9c1.3,1.1,1.9,4.6,3.2,6.3
		C652.1,1022.1,642.8,1015.8,646.5,1014.1z M616.7,1007.7c0.8-0.5,1.6-0.9,2.4-1.4c0.3-1.5,2.2-1.7,4.1-2.6c2.4-1.1,2.3,0.2,4.6-4.3
		c0.7,0.6,1.4,0.7,2.1,1.5c1.2-3.5,2.4-3.3,5.1-4.3c1.2-0.4,1.5,1.2,2.3,1.1c0.9,0,1.6-1.5,2.6-1.6c1.9-0.2,4.9-0.5,6.2-0.1
		c1.5-1,2.8-1.9,4.2-3c0.6,0.4,1.8,1.6,2.1,2.3c-5.2,0.6-1.9,7.3-0.5,10.1c1.2,2.4,5.1,5.4,5.4,6.1c0.8,1.7-0.4,0.8-1,4
		c-0.4,1.9,0,3.8-0.2,5.6c-1.2-1.5-1.8-1.4-1.6-3.7c-4.3-1.7,1.8-3.5-1.7-7.5c-1.1,0.7,0,0.7-0.3,1.5c-0.7-0.1-1.5-0.2-2.2-0.3
		c0,0.8-0.1,1.6,0,2.4c-1.1-0.6-0.8-0.4-1.6-1.5c-0.4,0.3-0.8,0.7-1.2,1c-0.3-0.3-0.5-0.7-0.8-1c0.8-0.9,1.5-1.8,2.4-2.9
		c3.5,0.5,1.1-3.2,0.3-5.6c-1.6-4.3,0.5-4-2.9-2.5c-1.9,0.8-4.7,5.4-6.6,7.4c-3.5,3.8-5.9,5-5.2,11.1c0.1,0.6-0.2,4.3,0.8,4.3
		c1.1,0,1-3.9,2.5-5.2c2.2,1.6-1.2,4.5,1,7.7c1.3,1.9,3.5,2.8,4.5,4.4c0,0-0.4,2.4,0,3.3c0.4,0.8,2.4,0.5,2.5,0.7
		c1,1.9,2.1,1.9,0.6,4.2c-0.6-0.5-1.1-0.9-1.7-1.4c-0.7,9.3-8.1-4.7-11.8-6.6c-0.6,0.8-1.9,2.1-2.4,2.9c1.2,1.9,3.8,1.5,4.7,3.2
		c1.9,3.4-2,5.6,3.8,7.8c-6.6,1.9-0.4,11.3-5.5,8.8c1.2,0.7,2.9,2.3,1.5,4c4.6,1.8-0.2,4-0.3,6.9c-0.1,2.3,2,5.9,3.2,7.8
		c0.3,0.5,3.5,3.5,3.3,2.9c1.2,3.6-0.8,2.9-0.7,5.8c0.1,3,3.7,4.4-1,5.5c-0.3-2.2-1.8-3.1-4.1-2.5c0.2-2.6,1.6-4.5,0.1-6.5
		c2.4-3.1-3.8-15.2-3.5-15.4c-2.8,2,2.6,8.5,2.9,10.6c0.3,2.2-0.4,3.4-1.5,5.4c-1.7,3.1-4.2,2.6-4.9,3.3c-1.2,1.3-3.8,8.1,0.6,8.2
		c1.4,0,3.3-4.4,4.8-5.4c-0.7,2.2-1.5,4.4,0.6,6c-7.9,0.9-8.1,0.2-12.4-5.3c-3.1-3.9-4.6-4.7-9.6-5.8c-2.1-0.5-6.9-1.5-8.2-2.9
		c-1.5-1.6,1.1-2.7-0.4-4.7c-0.6-0.8-4-1.9-4.9-2.5c0.7-2.7-0.4-4.3-1.2-6.9c-1-3.2,1.2-2.3-1.2-3.7c0.4,0.2-3.1,0.2-3.9-0.1
		c-3.2-3,0.1-13.3-4.6-14.2c-0.5-3.7-1-11.5,1.8-14.1c0.5-0.5,5.6-2.7,6-2.7c3.4,0,4.9,3.3,9.3,4.2c0.7-2.1,0.9-2-0.9-3.8
		c1.3-1.8,1.7-3,2.7-4.9c1.7-3.2,1.4-3.2,4.7-5.2c2.4-1.4,2.6-0.7,3.6-4C616.5,1011.3,616.1,1009.9,616.7,1007.7z"/>
	<path id="vn-68" d="M588.5,1043.5c2.8,0.6,3.1,7.2,3.6,9.7c1.1,5.1-1.1,5.6-4.2,8.2c6.6,4.8,0.2,9.5-1.1,15.1
		c-0.5,2,0.1,4.6-0.7,7.2c-0.9,3.3-1.5,4.4-2.8,7.1c3.4,1,3.3,2,4.2,3.1c0.7,0.9,2.9,4.8,3.2,6.5c-0.9,1-1.9,2.3-3.1,3.2
		c-0.3-0.3-0.7-0.3-1.1,0c-2.1,1.2-4.5,1.6-6.8,2.1c-0.4,0-0.7-0.1-1.1-0.1c-4.5,3.1,5.7,10.5-3.6,12.2c-0.2,0-3.2-1.6-4-1.7
		c-1-0.1-2.6,0.9-4,1c-3.2,0.2-4.4-1.1-7.6,1.1c-1.2-5.3-11.7,0.6-6.9,6c5.6-1.7,0.1,5.6-1.7,7.2c-2.6,2.5-10.1,8.1-12.6,6.2
		c-0.9,2.7-4.7,4.7-6.2,7c1.7-6.2-2.3-10.6-8.2-12.3c-4.9-1.5-18,0-20.6-1.6c-0.5,7.1-8.3,2-11.3,1c-1.1-0.4-1.4-2-2.6-2.3
		c-0.9-0.2-2.2,2.4-2.9,2.2c-0.8-0.2-2.7-1.9-3.1-2.3c-1.5-1.8-2.2-7.2-4.4-3.4c-0.3,0-0.6,0.1-0.9,0.1c-0.9-0.6,0.5-0.1-1.2-0.5
		c0.6-2.3,2.4-3.1,3.8-4.7c-2.3-3.2-5.8-5.8-9.3-3.6c1-2.1,0.6-1.7,0.1-3.7c0.1,0.3,0.1,0.5,0.2,0.8c-0.3-0.2-0.6-0.4-0.9-0.6
		c0.2-1,0.2-1.3,0.2-2.5c-0.2,1.9-1.2,2.7-2.2,3.3c-1.3-0.4-2.2-1-3.1-2.3c0.4,0.4,0.7,0.3,0.9-0.1c-0.8-1.6-0.4-1.7-1-3.3
		c-0.6-1.7-2.2-2.4-2.5-3.9c-0.5-2.5,1.1-6.6,3.1-8.3c1-0.9,4-1.8,4.9-1.9c0.4,0,0.9-0.9,1.5-1c1.4-0.2,2,2,3.4,1.9
		c4.2-0.1,5.9-5.9,10.4-4.4c0.3,0.2,0.7,0.3,1,0.5c4.4-2.8,8.1-6.4,12.1-8.9c-1.2-2.7,5.1-4.4,4.3,1.8c2.2,0.3,3.5,1,5.5,0.9
		s2.8-1.4,4.1-1.6c4.4-0.6,5.9,1.4,6,4.8c-0.6,1-0.3,1.6,2.4,2.5c0.7-1.7,1.1-0.9,2.1-2.4c0.6,0.8,1.7,1.3,2.4,3
		c2.9-1.1,14.9-7.1,11.3-10.6c-1.9-1.4-3.8-3.7-4.7-5.1c-1.5-2.3-1.8-4.3-3.7-5.6c0.6-1.1-0.1-1.4,0.4-2.6c-6,1.2-3.2-4.9-1.1-7
		c0.3,0.4,0.5,0.7,0.8,1.1c0.5-1.3,0.9-0.6,1-2.2c2.3,0,5.3,1.4,6.9-0.3c0.2,0.2,0.4,0.5,0.6,0.7c0-0.4,0.1-0.7,0.1-1.1
		c0.2,0,0.6,0.4,1,0.1c-0.4-1.4,0.2-1.6-0.2-3.3c2.4,1.4,4.3-2.8,5.4,0.3c1.3,0.6,2.5,0.7,4-0.3c0.2,0.4,0.4,0.7,0.6,1.1
		c0.1-0.3,0.3-0.7,0.4-1c0.8,0.9,0.7,0.8,1.2,2c1.2-1.4,2-5.9,5-3.7c1.6-1.5,2.3-1.7,3.9-2.3c-1.6-3.2,7.6-2.3,8.9-2.1
		c-0.1-0.8,0.1-1.4,0.2-2.5c1,0.8,0.7-0.2,1.4-0.5c0.3,0,0.7,0.8,0.7-1.4c0.2,0.3,0.4,0.5,0.6,0.8c0.3-1.2,0-0.8,1-1
		c-0.4-0.3-0.4-0.6,0-0.9c2.2,4.2,5.7,0.7,9.6,1.8C582.3,1047.6,588.4,1046.5,588.5,1043.5z"/>
	<path id="vn-58" d="M593.1,1057.6c1,0.4,3.7,0.3,3.8,0.3c2.3,1.2,0.1-0.3,1.4,3.4c0.9,2.6,1.8,4.2,1.2,6.9c0.9,0.6,4.3,1.7,4.9,2.5
		c1.5,2-1.2,2.9,0.4,4.7c1,1.2,6.5,2.9,8.4,3.2c4.9,1,6.5,1.7,9.5,5.5c4.3,5.4,4.6,6.1,12.5,5.3c-1.4,2.6,1.9,3.6,2.5,5.1
		c1.3,3.4-0.4,1.9-1.5,3.7c-2.9,5-5,9.1-7.2,13.8c-2.4-4.3-7.4-2.3-9.2,0.1c-1.3,1.7-1.2,9.4-1.1,12.3c0.2,5,0.6,4.4-1.8,7.4
		c-5.1,6.4-5.9,0.5-11.5,1.5c0.5-0.7,1-0.7,0.8-1.8c-4.8-1.5-11.7-3.5-10.1-10.5c-3,0.6-5.5,1-7.8-0.9c-4.4-3.8-0.8-6.1-8.2-6.8
		c-1.4-2.6-4.4-5.8-1.4-7.9c0.4,0,0.7,0.1,1.1,0.1c2.3-0.5,4.7-0.9,6.8-2.1c0.4-0.3,0.8-0.3,1.1,0c1.2-0.9,2.2-2.2,3.1-3.2
		c-0.3-2-2.2-4.7-3.3-6.1c-0.5-0.6,1.5-1.2,0.5-2.1c-0.4-0.4-3.6-1.1-4.4-1.3c0.8-2.6,2-3.6,2.8-6.4c0.8-2.9,0.2-5.6,0.7-7.9
		c1.2-5.4,7.9-10.6,1.1-15.1C589.6,1059.9,590.5,1058,593.1,1057.6z"/>
	<path id="vn-72" d="M353.5,1093c2.1,1.6,3.1,2.3,5.5,2.7c2,0.3,3.2-1,4.8-0.7c3.8,0.7,7.1,6.1,10.7,6.9c4.2,1,7.9-3.2,12,0.7
		c1,1,2.8,4.2,3.2,5.7c0.3,0.8,1.3,2.3,1.1,3.2c-0.9,3.4-3.4,1.4-4.6,2.8c-2.1,2.5-2.2,5.8-4,7.9c-2.1,2.4-1.5,1.1-3.1,5.5
		c-0.7,1.9-1,1.3-1.2,3.1c0-0.3-1.6,1.1-1.7,1.9c-0.1,1.7,1.6,1.7,0.8,4.4c0.4,0.4,0.1,0.2,0.8,1.1c0.5-0.7,0.4-0.3,1-0.5
		c0.2,1.5-1.2,2.4,0.8,2.5c-0.4,0.4-0.8,0.7-1.2,1.1c3.5,0.8,2.3,3.5,4.1,6c0.4,0.5,2.7,0.4,3.6,2.1c1,1.8-0.3,3.3-0.6,5.8
		c-0.3,3-1,7.9-3.8,9c-4.2,1.7-6.7-3.8-10.6-1.9c4.4,4.7-9.1,5.3-9.7,3.7c1.3,0.4,2.5,0.5,3.7,0c-1.4-2.4-0.8-5.1-2.1-7.4
		c-3.2-5.9-1.9-1.7-5.3-2.7c-0.4-0.1-1,1.7-1.9,1.6c-0.8-0.1,0-1.6-0.8-2c-1.5-0.6-2.5-1.4-3.9-2.9c-0.6-0.6-3.2-4.8-3.4-5
		c-0.9-0.7-3.5-0.6-4.5-1.3c-3.6-2.6-5.2-9.2-9.1-7.6c0.4-4.7,1.4-7.3,0.6-11.3c2.5-1.2,2.3-2.7,2.3-4.4c0,0.7-1.8-1.1-1.9-1.6
		c-0.2-0.9,0.5-1.4,0.3-2.6c-0.3-1.9,0.9-3.3-0.6-5.1c-1.3-1.6-2.1,0.1-3.1-0.9c-2.4-2.5-2.8-2-1.4-5.3c0.8-2,2.8-5.2,5.8-5.2
		c5.6,0.2,3.4,5.2,8.3-0.1C347.5,1099.1,346.7,1091,353.5,1093z"/>
	<path id="vn-75" d="M430.1,1199.1c-1.8-0.7-3.6-2.5-5.3-3.1c-0.5-0.2-2.7,1.1-2.4,1.2c-1.7-0.5-1.2-1.9-2.6-2.8
		c-3.1-1.9-5.8-2.7-4-6.8c0.9-2.1,5.3-5.3,5.6-2.3c2.2-1.3,1.9-1.2,4.1-0.5c-0.5-3.5,0.7-5.6-2-9.4c-2.2-3-1.8-3-5.4-4.8
		c-0.8-0.9-1.9-2.6-2.2-3.9c1.6,0.3,1.3-0.3,3-0.6c-5-4.2,3.8-4,0.2-7.7c3.3-1.4,5.5,4,9.8,3.3c0.5-2.7,3-3,3.2-3.3
		c0.7-1.2,0.4-2.8,1.2-4.5c-0.2-0.9-0.2-2.4,0.7-3.3c-2.1-2.8-4.1-3.6-5.9-6.1c1.3-1.6,1.6-1.3,0.9-2.9c0.6-0.1,1.3-0.2,1.9-0.3
		c-1.3-2.1,0.6-3.6,0.5-5.8c0.7,0,1.3,0.2,1.8,0.7c1.5-1.1,0.1-0.6,2.3-1.1c0-0.7-0.3-1.1-0.4-1.7c1.9,0.8,5.5-1.7,5.5-3.4
		c0.6,0.1,0.7,0,0.5-0.4c3.4-0.1,2.2-7,5.5-9.7c5.4-4.4,22.6-1.9,23.3-9.4c0,1.2,0,1.4-0.2,2.5c0.3,0.2,0.6,0.4,0.9,0.6
		c-0.1-0.3-0.1-0.5-0.2-0.8c0.7,1.9,0.9,1.7-0.1,3.7c3.4-2.2,7.2,0.3,9.4,3.6c-1.5,1.6-2.9,2.5-3.8,4.7c1.5,0.3,0.6,0.2,1.2,0.5
		c0.3,0,0.6-0.1,0.9-0.1c2.2-3.9,2.9,1.7,4.4,3.4c1,1.1,2.3,1.9,3.6,1.9c0,2.7-1.6,4.9-2.2,7.1s1.4,4.6-1.8,3.9
		c-0.1,1.1-0.1,1.4,0.1,2c-1.2,0.3-1.8,0.2-1.6,2c-0.1-0.5-0.3-0.5-0.6-0.2c0.2,0.3,0.4,0.6,0.6,0.9c-1.2,0.3-0.4,0.1-0.8,1.1
		c-0.3,0.3-2,2.3-2.1,2.8c-0.4,1.6,0.9,3.6-0.4,6c-2.2,0.1-1.2,2.9-4.4,3.1c3.2,1,10,3,12.7,5.9c3.9,4.1,6.2,18.6-2.6,19.4
		c-3.2,0.2-4.3-4.7-7.3-1.3c-0.2,0.8-0.6,1.3-1.2,1.3c-4.2,2-5.3,6-6.5,8.9c-5.5,1.5-2.4-2.8-3.8-4.9c-1.8-2.9-1.5-1.5-5.2-2.8
		c-2.3-0.9-2.6,1.3-3.4-1.5c-2.5,0.7-3.6,2.5-6.3,2.7c0.4,0.7,0.4,0.7,0.8,1.3c-0.3,0.6-0.8,3.3-2.1,4.8c-2.8,3.3-6,0.7-9.6,2.9
		c-1.7,0.6-2.5,1-0.7,2.9c-0.8,0.9-1.4,1.4-2.2,2.5C433.8,1200.1,432,1199.4,430.1,1199.1L430.1,1199.1z"/>
	<path id="vn-60" d="M612.2,1204.3C619.4,1212.7,605.2,1204.7,612.2,1204.3z M579.6,1113c7.7,0.7,3.5,2.8,8.2,6.8
		c2.3,2,4.9,1.5,7.8,0.9c-1.7,7.1,5.5,8.9,10.2,10.5c-0.8,2.2-2,1.9-4.3,3.1c-2.6,1.4-2.7,0.9-4.6,2.9c-2.6,2.8-3.2,9.2-6.6,11.3
		c-0.6-3.5-5.8-3.1-7.8-0.9c-2.9-2.3-9.2,2.9-10.8,5.7c-1.2,2-1.1,4.7-2.6,6.3c-1.1,1.1-2.7-1-4.6,1.7c-5.4-3.3-4.7,3.5-6.6,5.9
		c-1.2,1.5-4.4-0.3-4.3,4.5c-0.4-0.1-0.9-0.2-1.3-0.3c0.9-6-13.6-1.2-15.8-0.2c-7.6,3.8-4,14.9-9.6,19.1c-2.5,1.8-5-0.8-7.9-0.9
		c-3.5-0.1-6.8,1.4-9.5,3.2c-6.5,4.3-12.7,6.9-20.2,9.9c-0.6-3.1-2.6-6.3-3.8-9.6c-0.3-0.7-0.1-2.6-0.5-3.8c-1-2.8-3.8-1-2.5-4.6
		c8.6-1.2,6.8-15,2.6-19.4c-2.7-2.9-9.5-5-12.7-5.8c2.8-0.3,2.7-2.6,4.4-3.1c1.3-2,0.1-4.7,0.4-5.9c0.1-0.5,1.8-2.4,2.1-2.8
		c0.4-1.2-0.3-0.8,0.8-1.1c-0.2-0.3-0.4-0.6-0.6-0.9c0.3-0.3,0.5-0.3,0.6,0.2c-0.3-1.8,0.4-1.7,1.6-2c-0.2-0.6-0.2-0.9-0.1-2
		c4.3,1,0.1-12,6.5-12.8c2.1-0.2,13,11.3,13.9,1.3c1.7,1.5,16.8,0.1,21.1,1.5c5.5,1.8,9.5,6.7,7.7,12.5c1.4-2.8,4.8-4,6.1-7
		c2.4,2,10-3.8,12.6-6.2c1.8-1.7,7.3-8.9,1.7-7.2c-4.7-5.5,5.8-11.5,7-6c2.7-1.8,8.2-2.5,11.5-2.1c2.2,0.3,3.8,2.1,6,1.4
		C578,1116.4,576.7,1113.5,579.6,1113z"/>
	<path id="vn-80" d="M327.2,1160.9c2.1,4.3,5.5,8.4,7.4,12.4c1.1,2.4-2.2,1.1,0.2,3.5c1.2,1.1,4.9,1.6,6.4,1.6
		c-0.3-3.3,2.9-3.8,0.9-7.2c3,2.8,7.2,7.9,11.2,9.4c3.8,1.4,8.3-1.5,11,2.3c0.6-6.9-8-13.6-2.4-17.3c-1.6,1,6.7-0.2,7.7-0.6
		c1.9-0.9,5.2,0.3,2-3.1c2.2-1,4,0.2,6.6,1.6c0.5,0.2,1.1,1.6,2,2c1.7,0.8,3.5,0.7,5.5,1.6c2.7,1.2,8.8,4.7,9.4,6.7
		c1.1,3.7-2.7,10.4-5.9,12.2c2.1,2.5,4.5,2.7,5.8,4c1.4,1.3,1.8,5.2,2.9,5.6c0.9,0.4,1.7-0.4,2.7-0.1c0.6,0.2,3.2,1.2,2.8,1.1
		c1.6,0.3,1.9,1.6,4,0c0.1,0,0.1,0.1,0.2,0.1c0.6-0.7,1.3-0.5,1.6-1.6c2.4,0.1,4.8,1.8,4.2,4.3c-1.4,1.1-1.2,1.6,0.4,2.1
		c2.5,4.8-1.2,9.3-5.4,13.4c-2.4-2.5-1-3.1-3.7-2.7c-1.3,0.2-4.7,4.1-5,4.9c-1.4,0.1-2-0.1-2.7-0.9c-0.4-0.2-0.5-0.4-1,0.4
		c-0.2-0.4-0.5-0.8-0.7-1.2c-2.8,1.2-4.3,4-7.3,3.3c0.5-0.5,0.4,0.2,1.1-0.5c-1.9-0.1-3.4-0.6-4.1-2.5c1.5-0.2,2-1.5,3.4-1.9
		c-4.7-4.2-5.8-1.8-8.8-6.5c-4.6-7.4-13.6-4.8-22.8-4.5c0.5,1.4-0.2,3.4,0.3,4.8c-4.8-0.4-9.7-0.8-14.5-1.2
		c-4.7,0.5-5.7-5.2-8.6-7.9c-1.9-1.8-4-2.1-6.1-3.4c-6-3.8-11.2-10.6-16.4-15.4c0.5,0,0.9-0.1,1.4-0.1c-1.1-2.6-2.1-4.4-4-6.1
		c-2.5-2.3-5.3-1.1-6.2-5C310.7,1170.9,319.8,1162.5,327.2,1160.9z"/>
	<path id="vn-77" d="M406.9,1367.1c1,3.5-4.6,2.1-0.4,6c-2.5-0.9-7.4,1.1-4.2,4.8c-2.1-1-3.9-0.7-5.1,1.1c-0.8-1.1-1.2-1.7-1.4-3
		c0.5,0.4,0.9,0.3,1-0.3c1.2,1.1,0.9,0.4,2.2,1C395.6,1373.1,403.8,1367.5,406.9,1367.1z M452.3,1214c-0.1-0.5-0.1-0.9-0.2-1.4
		c1.4,0.6,2.6,1.6,3.5,2.9c-2.8,0.4-9.4,6.8-10.8,10c-1.3-2.1-2.1-3.7-2.3-6c2.9,0.7,5.2-2.7,8-3.4c-0.7,0.1-1.9,0.4-2.4,0.5
		c-0.3-1.2-0.3-2.6,0-3.5c0.9-0.5,1.2,0.1,1.9,0.2c0.2-0.4,0.3-0.9,0.5-1.3C451,1213,451.6,1212.9,452.3,1214z M443.9,1211.4
		c1.1,0.4,1.7-0.4,2.1,1.3c0.4-0.5,0.8-0.9,1.2-1.4c1.5,4.6-4.3,4.8-6.2,0.9C441.9,1211.9,442.9,1211.5,443.9,1211.4z M440.9,1211.6
		c-0.8,0.4-1.6-0.9-1.5,0.7c-1-1.7-1.1-1.9-2.2-3.3c3.3-2.3,3.6-9.1-0.1-11.3c1.2-0.8,0.3-0.3,1.7-0.3c0.2-3.5,6.5-1.6,8.8-3.6
		c1.7-1.5,2.2-4.4,2.6-5.3c-0.5-0.7-0.3-0.5-0.8-1.3c2.6-0.3,3.7-2.1,6.3-2.7c0.8,2.5,1.1,1,3.4,1.5c3.8,0.9,3.7,0.2,5.4,2.9
		c1.3,2.1-1.7,6.4,3.8,4.9c1.2-2.9,2.3-6.9,6.5-8.9c0.6-0.1,1-0.6,1.2-1.3c3-3.4,4.1,1.5,7.3,1.3c-1,3.2,1.9,3.4,3.4,6.1
		c0.6,1.1,0.5,4.2,1.1,5.8c1.8,5.6,3,8.1-3.4,12.5c-5.1,3.6-11.9,2.1-17.5,5.5c-1.9,1.1-4.3,5.5-5.8,5.9c-3,0.7-3.2-3.5-7.2-1.9
		c2.1-1.1,3.5-1.6,2.7-4.3c-1.9,0-5.9-2.1-8.4-2.5C445.5,1211.6,443.7,1212,440.9,1211.6L440.9,1211.6z"/>
	<path id="vn-89" d="M267.6,1167.6c-0.6,0.9-0.2,2.1-1.3,3.1c0.6,0.1,4.4-0.3,5.1,0.2c3,2.5,0.7,0.7,2.5,3.5c2.2,3.3,4,5.7,6.4,7.8
		c0.2,0.2,0.3,2.1,0.8,2.7c0.9,1.1,2.6-0.1,3.3,1.2c0.5,0.8-3,2-2.3,2.5c0.8,0.7,4.1,0.4,4.3,0.6c1.7,1.6,0.6-0.7,1.8,2.3
		c0.5,1.1-0.4,4-0.2,5.2c0.7,4,3,6.5,6.6,8c2.8,1.2,7.1-0.4,9.4,0.6c3.9,1.7,5.1,6.5,4.9,10.4c-2.7-0.3-1.5-0.1-2,1.2
		c-1.7,0.3-5.7,6.9-5,8.3c-1.5,1.4-3.9,2.1-6.2,2c0.6,0.8,0.7,2.2,1.3,3c-2.2,0.8-7.2,3.6-9.2,3.1c-1.1-0.2-2.3-3.3-3.5-3.8
		c-1.9,3.5-6,5.2-8.7,8.5c-7.8-6.9-14.7-11.8-24.9-14.3c-6.5-1.6-14.3-9.1-13.7-16.3c10.7-0.4,8.8-3.4,15.6-10.2
		c2.9-2.9,7.7-3.7,10.5-6.6c3.4-3.5,2.3-2.3,0.4-6.9c-1.6-3.6-4-7.8-2.6-11.4C261.6,1170.2,264.7,1165.6,267.6,1167.6z"/>
	<path id="vn-87" d="M296,1166.1c5.3,3.4,12.4,4.8,16,12.9c-0.5,0-0.9,0.1-1.4,0.1c4.4,4.2,8.7,8.7,13.4,12.6
		c3.6,3,7.1,4.2,10.2,7.7s8.2,6.9,7.2,10.6c-0.7,2.5-5,5.2-6.8,7.2c-1.8,2.1-0.5,5.3-4.3,3.7c-0.4,2.3,0.6,4.5,0.6,5.5
		c2.1,0.9,4.7,1.3,6.5,3.1c-0.5,0.4-1,0.7-1.5,1.1c0.9,1,3.8,3,3.7,4.6c-0.3,3.6-5.1,0.7-4.4,5.2c-2.8,0.2-6.5,1.2-8.5-3.2
		c-0.3,0.3-0.6,0.7-0.9,1c-1-1.5-2.3-1.5-3.5-2.6c-0.8,2-2.8,4.4-3.8,6.7c-3.2-2-4.2-4.7-6.3-7.4c-2.4-3.1-7.8-5.9-9.5-8.8
		c-2.5-4.3-0.7-1.3,1-4.9c1-2-0.4-4,2.8-4.6c0.8-1-0.8-1.5,2-1c0.5-9-5.1-9.7-11.3-11c-3.6-0.7-6.1-1.2-8.1-4.4
		c-1.7-2.7,0.1-8.7-1.1-10.3c-1.4-2-4.5,0.6-6.3-1.2c-0.9-0.9,2.5-1.8,2.2-2.3c-0.5-0.8-2.3-0.8-2.6-1.3c-2-3.2-9.1-7.6-7.7-13.3
		c1.9,0.7,12.6,4.7,14,4.3C290.4,1175.4,294.4,1167.8,296,1166.1z"/>
	<path id="vn-82" d="M341.8,1205.9c4.8,0.4,9.7,0.8,14.5,1.2c-0.5-1.5,0.1-3.3-0.3-4.8c9.1-0.3,18.2-2.8,22.8,4.5
		c3,4.8,4.1,2.5,8.8,6.5c-1.3,0.4-1.9,1.6-3.4,1.9c0.7,1.8,2.2,2.4,4.1,2.5c-0.8,0.7-0.6,0-1.1,0.5c2.8,0.7,4.7-2,7.3-3.3
		c0.2,0.4,0.5,0.8,0.7,1.2c0.5-0.8,0.6-0.6,1-0.4c0.7,0.8,1.2,1,2.7,0.9c0.3-0.7,1.3-0.4,0.5-1.9c2.2-0.2,4.5-4.1,5.1-4.1
		c1.8-0.1,1.7,2.8,3.2,3.9c1.6-1.6,3.4-3.8,5.3-5.3c1.8,3.4,4.1,5.8,4.6,8.6c0.4,2.3,0.6,7.2-0.1,9.3c-0.3,0.8-2.3,2.9-2.3,3
		c-0.1,2.1,4.3,4.6-1.1,6.2c-2.5,0.7-9.4-3.3-12.9-4.3c-8.8-2.5-15.1-7.5-24.1-7.1c-4,0.2-8.4,0.2-12.6,1.7
		c-4.9,1.7-9.4,4.6-14.4,1.1l0,0l0,0c-5.6-6.6-6.9,1.8-12.7,2c-1.8-1.8-4.4-2.2-6.5-3.1c0-1-1-3.2-0.6-5.5
		C332.8,1222.1,342.8,1210,341.8,1205.9z"/>
	<path id="vn-91" d="M166.8,1213.7c2.9,3.6,6.3,4.4,7.2,9.1c0.9,4.9-0.1,9.9-2.1,14.3c-1.3,2.8-3.2,7.9-3,10.4
		c-0.1-0.8,1.4,2.7,1.4,2.8c0.4,0.9-0.2,2.4,1.4,3.7c-2-1-1.8-0.8-3.8-0.6c-1.7-3.9-2.2-7.4-3.2-11.9c-0.9-4.4-4.7-10.3-5-13.9
		c-1.7,0.5-3.7-0.7-5.2-0.7c-0.2-0.9-2.7-5.8-2.2-6.3c1.6-2.2,5.1,1.4,7.2,0.9C163.3,1220.4,162.9,1214.1,166.8,1213.7z
		 M228.9,1205.9c1.6,0.5,5.9,0.8,7,1.7c1.7,1.2,0.8,1.7,2,3.8c1.9,3.3,4.1,9.2,7.3,11.2c4.6,2.9,11.5,2.5,16.5,5.2
		c5.3,2.8,9.4,6.5,13.9,10.4c0.4-1,1.6-1.7,2-2.7c0.3,4.4,7.1,5.7,8.7,7.2c4,3.7,6.9,8.5,11.3,12.5c3.7,3.5,10.7,7.4,6.4,12.4
		c-1.9,2.3-6.1,2.2-8.1,3.9c-1.3,1.1,0.8,2.8-1.1,3c-1.2,0.9,0.2,2.4-0.4,3.1c-1.3,1.4-5.6,3.6-7.8,4.6c0.7,2.1,2,3,3.9,2.6
		c-0.1,0.4-0.1,0.8-0.2,1.2c6.5-0.9,0.6,3.9,0,6.5c-1.8-1.4-1.7,0.1-2.5-2.2c-2,2-3.5-0.1-4.4-2.2c-1.6,3.1,1.2,4.9,1.4,7.3
		c0.5-0.1,1-0.1,1.5-0.2c0.6,2,0.2,3.5-0.7,5.1c-5-1.1-0.5,8.6,0.3,10.8c-9.3-3.7-19.2-10.2-28.4-16c-1.6,1.7-1.4,2-3.6,0.2
		c-0.5,0.7-1,1.4-1.5,2.1c-0.6-1.1-2-1.7-2.6-2.7c-1.1,2-2.1,4.1-3.2,6.1c-1.1-1.5-2.7-2.8-4.3-3.3c0.8-5.9,0.5-23.4,5.2-28
		c1.5-1.5,2.2,0.2,3.8-0.8c2.6-1.5,4-3.2,6.4-5.4c2.3-2.1,7-6.6,7.7-0.8c4-4-2.5-9.8-5.2-12.7c-5.7-5.9-10-0.6-15.5-5.2
		c-4.1-3.4-5.3-12.1-12.6-10.3c-6.3,1.5-4.5,7.9-10.9,7.3c0.5-1.5-2.6-16.7-6.5-12.3c0.7-4.2-3.6-11.7-8.1-8
		c0.8-1.8,0.8-3.5-0.2-5.2c2.2-1.1,4.2-0.8,5.4,1.4c1.7-3.2,4.9-6.5,7.3-8.9c2.2-2.3,0.3-1.1,3.1-2.2
		C224.7,1205.6,226.2,1205.1,228.9,1205.9z"/>
	<path id="vn-86" d="M350.2,1227.5c-0.8,2.8-0.1,3.4,1.9,4.8c1.4,1,4.4,0.4,6.2,1.4c1.1,0.6,1.1,1.9,1.8,2.4
		c5.5,3.9,8.8,7.7,13,13.8c-2.7-3.2-6-3.2-6.1,0.6c3.6,3.2-5.8,2.6-7.8,1.9c-0.2,2.9,0.4,5.7-2,7.7c-0.8-0.6-1.5-1.3-2.3-1.9
		c-2.9,1.7-8.4,6.8-11.6,3.5c0.8,1.1,1.4,2.4,2.3,3.5c-6.3-5-10.8-8.4-16.1-14.7c-2.2-2.6-8.7-5.2-9.9-7.7c-1.2-2.6,1.9-4.5,2.9-7.3
		c1.2,1.1,2.5,1.1,3.5,2.6c0.3-0.3,0.6-0.7,0.9-1c2.1,4.3,5.7,3.5,8.5,3.2c-0.6-4.3,3.6-1.7,4.4-5.3c0.3-1.3-3-3.9-3.7-4.6
		c0.5-0.4,1-0.7,1.5-1.1C343.3,1229.1,345,1220.5,350.2,1227.5z"/>
	<path id="vn-83" d="M350.2,1227.5c6.1,4.2,16.8-1.4,23.4-2.3c3.6-0.5,6.4-1.5,10.2-0.7c3.4,0.7,7.2,3.4,10.4,4.8
		c7,3.1,15.4,4.6,20.5,9c2.7,2.4,3.6,1.9,3.2,5.4c-0.3,2.6-2.2,5.6-5.1,6.6c0.3-0.5,0.5-1,0.8-1.5c-1.4,1.4-2.7,2.3-4.5,1.6
		c0.6-0.9,0.6-1.6,0.9-2.4c-3,2-0.2,8.2-6.2,8.9c-1.2,0.1-5.5-3.2-5.4-0.5c0.1,1.4,7.1,3.9,8.1,5.1c2.9,3.3,2.3,4.4,0.1,7.8
		c0.3-0.5-3.4,3.2-3.2,3.2c-5.8,0.3-9.4-10.4-15-11.6c-1.3-0.6-2.5-1.1-3.8-1.7c-2.8-1.8-5.4-4.5-8.6-5.5
		c-5.8-4.7-9.6-11.8-15.2-16.3c-2.5-2-3.6-2.8-6.8-4.3C350.4,1231.3,348.8,1232.2,350.2,1227.5z"/>
	<path id="vn-84" d="M345.5,1265.3c-0.9-1.1-1.5-2.4-2.3-3.5c3.3,3.3,8.6-2.1,11.6-3.6c0.8,0.6,1.5,1.3,2.3,1.9
		c2.3-2.1,1.8-4.8,2-7.7c2,0.7,11.4,1.3,7.8-1.9c0.4-6.9,6.5,0.4,9.2,2.7c3.2,1,5.8,3.7,8.6,5.5c2.3,0.6,11.4,7,11.2,9.6
		c-0.2,3.1-7.3-5.7-9.5-4.2c1.8,1.7,3.7,3.7,5.1,5.8c0.7,1.1,1.5,4.1,2,4.7c2.8,3.5,3.9,2.3,4.8,7.1c1.4,7.2-6,15.2-14,15.3
		c-4.7,0-3.8-1.6-7.3-4.5c-3.8-3.1-6.6-2.3-10.7-5.9C360,1281.1,349.1,1273,345.5,1265.3z"/>
	<path id="vn-94" d="M337.8,1260.3c4.7,1.6,7.3,5.3,10.4,8.9c4.2,5,9.4,8.6,13.9,13.2c3,3.1,9.6,7.4,10.5,10.1
		c1.2,3.4-4.4,12.2-5.9,5.2c-1.2,1.8-0.1,3.6-1,5.4c-0.8,1.5-2.7,2.9-3.5,4.3c8.2,2.7-6.7,7.8-8.9,8.2c-7.3,1.5-14.6,5.2-21.7,7.7
		c-0.4-1.9-1.1-3.8-0.8-5.8c0.2-1-0.5-2.2-0.3-3c0.2-0.7,3-0.7,3.2-1.4c0.5-1.7,0.5-3.5-1.5-4.1c0,0.1-0.1,0.1-0.1,0.2
		c-0.1,0.6-1,1.6-2.3,2.1c-1.6-0.4-2.8-0.7-1.7-2.2c-2.9-2.4-3.7,1.2-6.9,0.6c-1.4,3.7-6.8-1.6-8.4-1c-1.5-1.8-1.8-2-3.1-0.4
		c-4-3.2-4.2-11-2.9-15.3c0.5-1.7,1.9-4,4.2-2.1c1.4-2.3,4.1-1.4,6.4-3.5c0.1,0.3,0.1,0.5,0.2,0.8c4.2-4.2,19.5-9.1,16.2-15.8
		C334.9,1268.5,335.3,1263.7,337.8,1260.3z"/>
	<path id="vn-6" d="M304.9,73.9c0.8-2.7,4.3-3.7,6.6-3.4c-0.5-3.5,1.3-1.5,3.2-2.7c2-1.3,3.1-2.8,4.9-3c0.2,0.3,0.3,0.6,0.5,0.9
		c3.5-4.6,4.6,1.2,6.9,2.7c-4.3,4.3-4.1,4.7-2.3,8.5c0.8,1.6,3,3.1,1.7,5.4c1.9,0.8,3,3.5,5.5,2.1c0.5,0.4,4.4,2.2,5.9,2
		c0.3,0,0.3,1.2,0.9,1.1c1.1-0.1,0.7-2.2,1.6-2.5c0.4-0.1,2.1-0.5,2.2-0.6c2.7-1.6,8.9-5.3,12-4.5c-0.1,0.6-0.3,1.5-0.6,2
		c7.5,2-1.5,12.2,5.2,14.8c2.8,1.1,3.9-2,6,2.2c1.6,3.2,0.2,4.6,1.5,8.3c0.1,0.2,2.3,1,2.5,2c0.7,2.9-1.4,3.7-2.1,5.8
		c-0.6,1.7,0.8,2.2,0,3.9c-0.7,1.4-2.7,3.2-3.4,4.3c-0.2,0.3-1.9,3.7-2.4,4c-1.2,0.8-3.7-0.4-4.8,0.8c-2.6,3,2.2,7.6,0,11
		c-0.2,0.1-0.3,0.1-0.5,0.2c0.4,0.5-0.2,1.2,1.2,0.9c-2.6,2.2-4.1-0.7-5.7-0.8c-2.1,0-0.6,0.4-2.8,1.1c-1.3,0.4-0.8,1.3-2.7,0.8
		c-0.3-0.1-0.7-0.1-1-0.2c-1.1,2.2-7.8,8.3-10.3,7.9c-0.1,0.5-7.3,5.1-8.2,4.3c-2-1.7,0.1-6,1.1-7.5c-2.5-2.4,0.1-6.4-1.8-9.5
		c-2.2-3.8-4.6-3.2-8.4-5.8c-1,2.9-3.2,2.7-5.8,3.5c-2.2,0.8-2.5,4-2.6,5.3c-0.6,0-1.2,0-1.8,0c-6.6-4.4-10.5-12.5-5.7-19
		c-4.3-0.1-8-10.4-1.8-11.2c-0.4-0.3-0.7-0.7-1.1-1c1-0.1,1.9-0.7,2.9-0.9c-1.9-2.5,1-4.3,2.3-6.9c0.2-0.4-0.2-2.7,0.2-3.2
		c1.6-1.8,3.2,0.2,4.8-1.8c-1,0.3-0.6,1.1-1.7,0.7c-0.2-4.6,5.4-6.9,3.9-11.8C309.6,80.2,306,78.5,304.9,73.9z"/>
	<path id="vn-24" d="M337.3,200c-1-0.5-1.3-1.1-0.5-1.9c0.9,0.1,1.2,0.5,2-0.4c-0.4-0.4-0.3-0.1-1.2-0.2c0.9-2.9,2.9-1.7,4.4-3.5
		c1.1-1.2-0.7-1,1.3-1.6c-0.1-1.2,0.3-2.1,0.2-3.3c1.7,2.6,3.6,2.7,6.1,3.9c-0.7-3,0.9-4.4,1.7-6.4c-1.1-2.4,2.2-8.8-1.4-9.7
		c0.1-1.1,0.7-1,1.3-1.7c1.1-2.6,4-5.5,7.3-3.4c0.3-0.1,0.6-0.3,0.9-0.4c0.5-0.1,1.1-0.3,1.6-0.4c0.9,0.3,1.8,1.2,2.7,1.9
		c-7.2,4.8,2.6,11.7,6.9,11c0.9-0.2,1.5-0.4,2.4-0.1c-0.8,2.7-0.4,4.3,1.8,4.8c-0.4-0.5-0.2-0.8,0.4-0.9c3.3,0.8,0,5.2,4,5.1
		c1.5,0.3,2.8,0.1,4.1-0.8c0.8-0.8,2.4-0.2,0.5-2c3.6-2.9,6.8-0.4,9.4-5.8c1.4-2.9,0.2-6.1,3.6-9.2c2.5-2.3,4.5-2,7.9-1.9
		c0.5,0,2-0.7,2.6-0.5c3,1.2,1.7,2.3,2.9,3.5c1.4,1.3,3.2,3,5.1,2.8c0.2,0,0.7-2.4,3-2.7c1.9-0.2,5.7,2,6.8,3.7
		c-1.8,1.1-1.4,1.6-1.7,3.6c1.8-0.8,4.1,0.2,5.1,2.3c-1.5,2.1,0,4.3,2.2,2.8c0.1,0.3,0.1,1.3,0.2,1.5c2-0.2,0.5-1,2.2,0.2
		c1.7-1.8,3.2-1.7,4.6,0.2c-5.1,3.8,2.5,6.3,2.7,9.2c0.3,3.7-3,1.6-4,3c-1.8,2.5,0.2,1.6-0.5,4.2c-0.5,1.7-0.9,3.4-2.2,4.8
		c-0.2,0.3-0.8,2.1-1.2,2.3c-1.4,0.8-1.2-1.3-2.4-1c-3.2,0.7-10.1-1.5-7.4,3c-4.9,0.2-12.9,0-17.3-2.5c-2.4,3.6-10.9-4-13.7-5.5
		c-0.8,1.3-1.5,0.4-2.7,0.8c-5-0.3-8.3,5.1-11.1,6.5c-0.8-1.4-2.2-1.9-2.8-2.6c0.3,12.7-3.8,0-8.8,3c0.2-0.5,0.3-1.1,0.5-1.6
		c-2.1,0.2-3.4-0.8-4.9-1.3c-1-0.3-1-2.2-2.3-2.5c-1-0.3-1.7,1.1-1.6,1.2c-2.1-0.7-7-3.5-7.2,0c-0.3-3.1-1.1-5.4-4.3-6
		c-0.3,7.7-8.8,1-5.6-3c-0.5-0.1-0.9-0.2-1.4-0.3C339.2,201.8,337.9,200.5,337.3,200z"/>
	<path id="vn-95" d="M283.6,1310.2c0.3,0.1,1.5,0.2,2.2,0.6c-1.1-2.4-4.9-11.8-0.2-10.9c1-1.6,1.3-3.1,0.7-5.1
		c-0.5,0.1-1,0.1-1.5,0.2c0-2.4-3.1-4.1-1.4-7.3c0.9,2.1,2.4,4.2,4.4,2.2c0.9,2.3,1.3,1.8,2.9,1.4c1.3,0.9,7.4,0.6,8.8,0
		c2,1.6,4.4-0.9,5.7,0.1c5.4,4-2.1,11.9,4.1,16.9c1.3-1.6,1.6-1.4,3.1,0.4c1.6-0.5,7.1,4.7,8.4,1c3.2,0.6,4-3,6.9-0.6
		c-1.6,0.9-0.1,0.7,0,1.6l0,0l0,0c0.4,0.3,0.9,0.5,1.7,0.6c1.2-0.6,2.2-1.6,2.3-2.1c0-0.1,0.1-0.1,0.1-0.2c1.2,0.4,1.6,1,1.7,2
		c0.5,3.7-2.7,0.9-3.7,3.6c-0.8,2.2,2.4,6.8,1.4,8.6c-0.5,1-6.5,3.6-7.5,4c-10.5,5-21.7,6.9-29.1,16.6c-0.8-4.2-3.6-3.9-6.6-4.7
		c-2-0.6-8.3-0.6-9.3-2.7c-0.5-0.9,1.5-3.5,1.7-4.6c0.4-2.6,0.2-1.1-0.3-2.5c-1.7-4.5-4.2-4.6,2.8-9.2
		C277.2,1316,279.4,1314.5,283.6,1310.2z"/>
	<path id="vn-27" d="M341.4,208c1.7,2.3,5,2.1,5.1-2c3.3,0.6,4.1,2.8,4.3,6c0.3-3.5,5.1-0.7,7.2,0c-0.2-0.1,0.6-1.5,1.6-1.2
		c0.9,0.3,1.4,1.8,1.9,1.9c1.7,0.4,2.4,2.1,5.3,1.9c-0.2,0.5-0.3,1.1-0.5,1.6c4.2-2.4,7.9,4,7.9,8.5c0,8-6,7.7-12.2,9.9
		c-0.1-1.1-0.1-0.5,0.1-1.7c-0.9-0.7-1.7-0.4-2.7-1.4c-0.6,1.1-1.5,1.1-2,1.7c-0.8-4-7.5-0.4-10.1-1.5c-0.3-0.6,0.1-1,0.8-1.1
		c-0.1-1.1,0.9-2.7,0-4.4c-1.1-1.9-3.3-0.4-4.7-3.3c-0.5,0.2-1.1,0.5-1.6,0.7c-1.1-4.5-1.5-3.1-1.9-6.9c-0.3-2.4-0.7-4.9-1.4-6.7
		C339.1,209.6,340.4,208.4,341.4,208z"/>
	<path id="vn-74" d="M412.1,1125.3c1.2-0.8,3.8-8.1,6.6-6.2c2.3,1.6-3.5,6.7-1.1,9.8c3.6-0.2,5,0.3,6.4,2.1c1.3,1.8-0.9,3.6,1.8,4.4
		c-1-3.3,5.3-6.4,6.9-1.9c0.9,2.7-3.7,4.5-1.8,7.5c-0.6,0.1-1.3,0.2-1.9,0.3c0.7,1.6,0.4,1.3-0.9,2.9c1.9,2.4,3.7,3.4,5.8,6
		c-0.9,0.9-0.9,2.4-0.7,3.3c-0.6,1.6-0.4,3.2-1.1,4.5c-0.2,0.4-2.6,0.6-3.2,3.3c-4.1,0.4-6.8-4.4-9.8-3.3c3.7,3.8-5.5,3.4-0.3,7.7
		c-1.7,0.2-1.4,0.9-3,0.6c0.5,1.3,1.4,2.9,2.2,3.9c2,0.8,2.9,1.1,4.6,2.2c-1.5,1.1-3.8,2.8-5.4,2.8c-0.3-0.8-0.9-1.7-1.1-2.4
		c-0.4,1.1-0.4,1.3-0.5,2.5c-0.3,0.1-0.5,0.2-0.8,0.3c-0.4-1.6-1.2-2.1-3.1-2.8c0.2,0.5-0.3,1.2-0.5,1.7c0-0.1,0.9,0.4,1,0.5
		c-2.1,0.8-7.4-6.8-6.9-9.9c-2.7,0.1-5.1-3.6-4.5-5.9c-1-0.2-1.1-0.5-2.4-0.9c-2.1,1.7-5-0.6-3.4-3.2c-0.5-0.5-1-0.1-1.6-0.9
		c2.7-3.3-4.3-4.3-5.8-5.2c1.1,1,0,0.9-0.3,2c-1.7-3.6-3.5-2.7-5.4-4.9c-2.1-2.4,1.1-4.5-3.2-5.5c0.4-0.4,0.8-0.7,1.2-1.1
		c-2-0.1-0.7-1-0.8-2.5c-0.6,0.1-0.5-0.2-1,0.5c-0.7-0.9-0.6-0.8-0.8-1.1c0.8-2.7,0-4.3,0.4-6.3c0.1-0.5,0.5-1.4,0.7-2
		c1.2-3.1,2-4.7,3.1-6.2c0.3-0.4,3.8-4.1,4.3-4.3c4.3-1.9,8.1,4.3,11.1,1.9c2.5,2.6-2.1,5.8,0,9.7c0.7,0.3,1.3,0.2,1.7-0.3
		c4.3-2.9,2.9,2.2,7.3,1.6c0.2,0,0.4,0.1,0.6,0.1c1.8-0.6,2-2.2,1.1-4.1C410.1,1127.8,411.8,1126.4,412.1,1125.3z"/>
	<path id="vn-70" d="M431.6,1135.7c4.1-5.2-7-5.3-5.6,0.1c-2.6-0.9-0.6-2.6-1.7-4.3c-1.3-1.8-2.5-2.3-6.2-2.1
		c-2.3-3.1,3.4-8.2,1.1-9.8c-2.6-1.8-5.6,5.4-7,6.2c-0.4,2.2-2,2.7-4.1,1.8c0.9,1.9,0.7,3.5-1.2,4.1c-0.2,0-0.4-0.1-0.6-0.1
		c-4.4,0.6-2.9-4.7-7.4-1.6c-0.5,0.6-1,0.7-1.7,0.4c-2.1-3.8,2.5-7,0-9.6c-2.5,2-7.5-2.9-11.8-1.5c-0.3-6.2,4.6-2.7,5.8-7.2
		c0.5-2-1.8-4.2-2.5-6.2c-0.8-2.7-3-6.1-3.7-9.7c-0.5-2.6,1.4-11.1,4.1-11.2c-1.7-3.2-3.3-6.5-5-9.7c3-1.4,7.5-0.6,11.1,0
		c-0.2,0.2-0.4,0.4-0.6,0.6c4-0.2,8.3-1.1,11.7,0.3c-0.3-0.5-0.6-0.9-0.9-1.4c2.5,0.2,4,2.2,7,0.1c2-1.4,2.1-4.5,3.8-6.4
		c4.2-4.7,6.4-1.4,12.1-1.5c5-0.1,8.3-2.5,10.6-5.1c2.2-2.4,5.2-5.6,6.5-5.4c0.3-2.2,3.1-4.9,3.9-5.8c1-1.1,2.6-5,4.8-4.6
		c4.9,0.8,0.7,14.6,4.4,16.7c-1.2,2.4-1,5.3-0.7,7.9c0.3-0.4,0.7-0.7,1-1.1c0.6,2.2,3.2,3,4.4,1.8c2.1,1.9,7.1,4.4,5.5,7.5
		c2.7,0.9,5.2,4.6,5.8,6.6c0.6,2,0,1.6-0.1,3c-0.4,4.4-1.9,5.2-5.3,6.8c-4.4,2.1-6.2,2.7-6.8,7.4c-0.7,5.3,0.3,1.4,2.3,5.7
		c0.9,1.8-0.8,2.4,0.7,4.3c-0.2,0.4-0.5,0.5-0.9,0.1c1,0.6,1.8,1.9,3.1,2.3c-7.3,3.2-19.1,1.8-23.5,8.5c-1.7,2.6,0.8,7.2-3.1,7.3
		c0,1.9-3.3,2.5-3.8,4.3c-0.7-0.3-1.1-0.3-2.1-0.4c0.1,0.5,0.3,1.2,0.4,1.7c-1.9,0.6-0.9,0.1-2.3,1.1
		C432.3,1137.1,432.1,1136.5,431.6,1135.7z"/>
	<path id="vn-96" d="M250.1,1372.9c-3.8,0.1-7.8,1-9-3.6c4.6-0.2,6-3.2,7.4-6.9c-4.1,4-10.7,5-11-2.2c-0.3-6.2,1.4-14.1,1.8-20.5
		c0.8-14.2,2-28.2,2.7-42.5c1.6,0.5,3.2,1.8,4.3,3.3c1.1-2,2.1-4.1,3.2-6.1c0.6,1,2,1.7,2.6,2.7c0.5-0.7,1-1.4,1.5-2.1
		c2,2,2.1,1.3,3.6-0.2c8.4,5.2,17,12.3,26.2,15.5c-3.8,4.3-5.4,5.9-0.1,9.8c-1.3,0.8-5.4,4.1-5.4,5.6c0,1.2,1.7,1.4,1.9,1.9
		c1,2.7,2.1,0.8,1.9,3.3c-0.1,1.4-2.5,2.7-2.3,4.6c0.6,5.1,12.8,2.2,14.6,6.1c1.3,2.9-2.6,10.1-4.2,13.3c-2.2,4.5-5.3,9.6-9.7,12.1
		c-4.1,2.3-7.2,2.1-10.2,6.4c-3.4,4.9-5.3,6.1-11.3,8c-5.7,1.8-12.5,3.7-18.2,2.7c-1.7-0.3-7.4-1.3-8.4-3c-1.8-2.9,0.5-4.8,2.8-2.5
		c1.5-1.2,3.8-2,6-1.8c-4.6-1.8-2.9-5.4-0.2-5.5C243.6,1371.4,246,1375.5,250.1,1372.9z"/>
	<path id="vn-30" d="M374,219.7c2.9-1.6,1.3-4.2,1.3-6.7c0.6,0.7,2,1.2,2.8,2.6c1.7-1.1,6.8-7.2,10.2-6.1c1.1-0.4,1.9,0.6,2.7-0.8
		c1.8,2.4,0.4,5.3-0.8,7.8c-0.4,0.9,0.7,1.4,0.2,2.1c-0.6,0.8-3,1.4-3,1.4c-0.8,1.6-0.9,3.1,0.5,5.1c0.3,0,0.7-0.1,1-0.1
		c1.7,0.1,2.9,0.5,4.5,0.7c0,0.5-0.1,0.9-0.1,1.3c2.8-1,7-1.8,8.6,2.5c-2.1,0.4-2.7,0.9-4.2,0.2c-1.9,3.1,5.7,7.2,0.5,8
		c0.9-1.8,0.1-0.4-0.2-1.5c-0.3,0.6-0.4,1.1-0.8,1.8c0,0-0.5-1.6-0.3-1.5c-1.8,0.5-0.8,1.4-0.5,2.7c-0.9,0.1-1.6,0.5-1.9,1.1
		c2,1.9,2.8,3,0.1,5.3c-1.7-1.2-0.2-0.6-2.6-0.2c-0.3-0.5-0.5-0.9-0.8-1.4c-0.4,0.3-0.8,0.6-1.2,0.9c1.3,2.3,0.7,1.3,1,3.6
		c2.5,0.3,2.3-0.4,1.7,2c-1.3-0.5-0.4-0.2-2,0.1c2.6,3.6,0.1,4.9-3,5.5c0.5,0.9,0.5,1.3,0.7,1.9c-0.3,0-0.5,0-0.8,0
		c-0.3-0.6,0.1-0.6-0.3-1.3c-0.3,0.5-0.7,1.1-1,1.6c-3.1-4.1-11.8,6.3-13.6,0.7c0,0.5,0,1.2,0.1,1.7c-1.6-0.6-2.1,0-3.5-0.2
		c0.6,0.5,1.3,0.7,1.9,1.2c-4.5-0.3-4.4-5.1-6.4-7.1c-2.1-2-3.8-1.8-6.1-4.6c0.3-2.8,1-6.5,1.3-10.4c0-0.6,1-2.9,0.8-4
		c-0.3-1.8-3.4-1.2-1.6-4.4c1.1,1.1,1.6,0.7,2.7,1.4c-0.3,1.2-0.2,0.5-0.1,1.7c3.6-1.2,8.1-2,9.6-3.3
		C375.8,227.3,372.2,224.1,374,219.7z"/>
	<path id="vn-35" d="M347.3,259.7c4.9,1.1,1,6.9,5,9.2c2.2,1.3,3.8-1.4,6.1-0.4c-1.3-0.5,3.9,6.3,3.6,5.4c0.5,1.3,2.3,5.5,1.6,6.8
		c-1.7,3-3.8-0.2-3.9-0.1c-1.4,0.1-4.8-1.4-3.6,3c-3.3-1.6-9.3-0.9-6.5,5.2c-0.7,0.3-2.9,0.6-2.9,0.6c-0.1-1.9-0.5-3.1-1.6-4.3
		c-1.6,2-5.5,4.6-3.7,6.4c-2.2,1.9-5.5-1.5-7.1-4.9c-0.8-1.7-0.3-3.8-1.1-5c-0.7-1-1.6-1.1-2.2-2.5c-2.5,0.8-3.4-3.1-4.7-5.7
		c4.2,0.2,3-5.8,5.9-7.9c-0.4-0.4-0.9-0.8-1.3-1.2c1.9,0.2,7.8,4.1,7-1.3c2.8-1.4,4.9-1,5.5,1.8c0.9-1.6,2.3-2.8,3.6-2.7
		C346.2,260.6,347.2,260.9,347.3,259.7z"/>
	<path id="vn-33" d="M347.1,231.4c4.6,1.9,10.8-2.4,13.3,3.8c0.8,2-0.3,4.9-0.7,6.7c-0.8,3.5-1.1,5.5-1.1,8.1c2.3,2.7,4,2.5,6.1,4.5
		c2,2,1.9,6.9,6.4,7.2c-1.4,1-3,2-4.6,2.7c0.5,0.6,0.9,1.1,0.2,1.3c-2.3-1.2-7.5-2.3-9.8-0.1c3.9,2.7-2.7,4.4-4.9,3.2
		c-4-2.2,0.3-7.9-4.8-9c-4.6,1.6-2-1.6-3-3.3c-0.5-0.8,0.2-2.5-0.3-3.4s-2.2-0.4-2.6-1c-2.6-4.7-0.1-4.2-0.3-8.2
		c-0.1-1-2.8-2.3-3.2-3.4c0.1,0.2,1.4-2.8,1.5-3c0.6-2.2-0.2-5,4.4-2.5C343.2,232.5,344.6,231.4,347.1,231.4z"/>
	<path id="vn-36" d="M398,300.8c0.4,0.6,3.8,6,0.2,6.3C394.8,307.3,396.4,302.1,398,300.8z M341.2,291.9c-1.9-2.4,2.2-4.9,3.9-7.1
		c1.2,1.2,1.5,2.4,1.6,4.4c0.1,0,2.2-0.3,2.9-0.6c-2.7-6.1,3.2-6.8,6.5-5.2c-1.2-4.5,2.3-3,3.6-3c-1.7,0.1,2.4,1.7,1.8,1.5
		c0.7,0.2,2-1.4,2.1-1.4c2.1,1,2.4,0.8,3.6,2.6c0.6,0.8-1.5,2.3-1.2,2.9c1.3,2,2.2,0.7,3.3,2.1c0.7,0.8,2.3-0.3,3,0.8
		c0.7,1.2-0.6,1.7-0.4,2.3c0.2,0.8-4.8,3.6-0.6,4.3c1.9,0.3,4.9-3.3,6.2-4.6c0.8,1.6,7.7,7.5,9.4,8c3,0.9,3.4-1.6,5.7-1.5
		c4.9,0.1,6.4,6.9,1.6,8.7c0-0.3,0.1-0.7,0.1-1c-3.7,2.4-8.5,1.6-12.4,4c-4.1,2.5-7.1,6.6-10.1,10.2c-3.3,3.9-7.4,7.9-10.4,11.5
		c-0.9,1.2-4.2,2.8-0.6,2.4c-1.5,1.4-2.6,1.8-4.9,2.1c1.3-2.9,0.3-6.2,1.4-9.5c1.1-3.2,2.1-5.1,3.4-8.3c1.4-3.2,3.6-15.7-3.7-11.3
		c-0.1-1.3-1.4-3.1-1.5-3.7c-0.8,3-4,5-5.5,1.6c0.5-0.1,1.1-0.2,1.6-0.3c-1.5-2.3-2.4,0.4-4.4-1.3c-2.3-1.9-1.2-5.3-5.2-6.6
		c-0.2,0.2,0.6-2.1,1.1-2.8C341.8,293.1,341.9,292.2,341.2,291.9z"/>
	<path id="vn-25" d="M264.8,162.3c2.2,1,5.5,1.3,6.3,3.5c4.1-2.4,7.9,5.2,8.6,7.2c1.2,3.2,2.1,8.5,6.3,9.1c0.3,1.5,0.9,6.5,1.9,7.5
		c1.9,2,2.7-0.9,4.8,2.5c0.5,0.7-0.3,3.7,0.4,5c0.8,1.4,3.1,1.3,3.9,2.7c1.3,2.2,0.7,3.9-0.2,5.9c-0.9-2.9-3.7-4.2-6.4-2.8
		c-0.1-0.6-0.3-1.2-0.4-1.8c-1.7,1.5-2.3,8.2-2.2,10.1c-0.3,0.5-0.7,0.7-1.2,0.4c-6.4,1.9-1.6,7.5-1.7,11.5
		c-0.1,3.2-0.9,2.8,0.1,6.3c0.7,2.3,2.4,4.6,3,7.2c-2.1,1.3-4.2,1.7-6.3,1.5c-0.1-0.5-0.2-1-0.3-1.5c-2.4-0.4-8.9,4.2-5.8-0.9
		c-0.4-0.2-0.9-0.5-1.3-0.7c-5.5,8.3-10.9-6.3-15.8-5.1c0-4.1-7-4.1-9.6-5c2.1-1.5,0.8-2.1,0.2-4.2c-0.4-0.5-3.9-2.1-4.5-3.1
		c-1.5-2.3,1.9-6-1.4-7.6c0,0,1.2-1.2,1-0.8c-1.1-2.2-0.4-3.6-1.2-5.9c-0.7-2.3-4.7-4.7,0.6-4.4c-0.2-4.8,2.3,1,4.7-1
		c-2.2,1.8,0.8-8.8,0.7-7.2c0.4-3.5-2.9-7.4-3.1-10.7c-0.1-2.1,3.2-3.9,0.7-7.4c0.6,0.1,1.1,0.2,1.7,0.3c-0.4-3.2,4-5.6,5.9-3.7
		c0.5-1.6,0.9-1.1,0.7-2.5c4.7-2.3,4.9-1.9,10.4-0.6C265.6,164.5,265.4,163.5,264.8,162.3z"/>
	<path id="vn-19" d="M307,139.3c0.6,0,1.2,0,1.8,0c0.1-1.4,0.4-4.4,2.6-5.3c2.6-0.9,4.7-0.5,5.8-3.5c3.9,2.6,6.2,2.1,8.4,5.8
		c1.9,3.2-0.8,7.1,1.8,9.5c-1,1.4-3.2,5.8-1.1,7.5c2.5,1.9,1.9-0.9,3-1.2c0.9-0.3,5.2-2.6,5.3-3.2c2.7,0.2,9.1-5.6,10.3-7.9
		c0.3,0.1,0.7,0.1,1,0.2c2.8,1,2.9-2.2,5-2.4c0.3,0,3.1,2.7,5,2.5c5.5,1.2,0,5.7,1.8,9.2c-2.6,1-1.5,4.4,0.2,5.8
		c1.9,0.5,2.9,1.6,4.5,3.1c0.4,0.2,0.8,0.4,1.2,0.6c1.1,0.3,1.8,0.7,2.7,1.5c3.7-0.8,1.7,2.9,1.1,5c0.1-0.4-3.2,5.4-2.6,4.8
		c-1.3,1.1-1.4,3.1-3.6,0.3c-0.5,0.1-1.1,0.3-1.6,0.4c-0.3,0.1-0.6,0.3-0.9,0.4c-3.3-2.1-6.2,0.8-7.3,3.4c-0.6,0.7-1.2,0.7-1.3,1.7
		c3.7,0.9,0.3,7.2,1.4,9.7c-0.8,2.1-2.3,3.4-1.7,6.4c-2.5-1.2-4.4-1.3-6.1-3.9c0.1,1.1-0.3,2.1-0.2,3.3c-1.6,0.5-0.3,0.3-1.3,1.6
		c-1.5,1.7-3.4,0.7-4.4,3.5c0.9,0.1,0.7-0.1,1.2,0.2c-0.8,0.9-1.1,0.5-2,0.4c0.1,0.8-1,1.1,0.5,1.9c-2.8-0.1-4.4-2.3-2.8-3.9
		c-1.6-0.8-6.2-3.2-6.8,0.6l0,0c-2.3-1.1-0.8-2.4-2.1-3.9c-1.9-2.1-3.5,0-3.3-3.2c-8.3,0.6-9.1-11.2-16.3-13.4
		c-4.3-3.4-4.2-7.8-5.8-11.8c2.6-2.3,3.2-4.2,4.4-6.8c-2.5,0.2-2.8-0.9-2.8-3.2c-0.1-5.3,2.1-0.9,2.8-3.1c0.3-0.9-0.7-3.1-0.4-3.5
		c0-0.1,2.2-2.6,2.1-2C307,144.1,307,142,307,139.3z"/>
	<path id="vn-26" d="M305.8,176.2c7.2,2.3,7.9,14,16.3,13.4c0.4,3.3,1.2,0.8,3.3,3.2c1.3,1.4-0.2,2.8,2.1,3.9l0,0
		c-0.8,4.2-6.2,7.4-5.5,10.3c0.5,1.7,8.7,6.1,4.1,6.8c1.2,4.1-1.9,4.2-3.8,5.3c-3.3-3.7-9.8-4.3-13.7-4c-8.5,0.7-10.7-0.8-12.3-9.7
		c0.7-1.5,1.5-3.6,0.6-5.4c-0.8-1.6-3.1-1.4-3.9-2.8c-1-1.5-0.3-3.6-0.9-4.8c-0.5-1-0.3-1.8-1.2-2.9c-1-1.3-2.2,2.1-3.3,1
		c-0.8-0.9-1.1-6.4-1.4-7.8c0.5,0.1,0.9,0.2,1.4,0.3c1-3.6,5.7-1.1,7.5,0.6C299.5,180.5,303.4,182.1,305.8,176.2z"/>
	<path id="vn-11" d="M16.3,81.1c0.9,2.2,1.8,4.9,2.9,6.6c1.7,2.5,4.3,2.7,4,7c-2.8,0.6,3.2,4.2,4.4,5.6c2,2.3,3.3,7.3,5.8,9.2
		c3.8,3.1,3.5-0.4,6.5,0.9c4.2,1.8,2,5.5,5.4,7.8c0.3,0,0.7-0.1,1-0.1c4.2,2.2,4.8-5.4,0.8-7.4c1.6-0.3,6.4,1.3,7.6,3.6
		c1.3,2.5-1.2,4.2-0.7,6.7c1,4.6,6,7.8,10.7,8.3c1.8-2.5,3.6-1.4,6.7-3.3c-0.6,1.9,2.3,6.3,4.7,6.6c0.1,0,2.3-2.6,3.2-2.9
		c0.9-0.3,5.5-0.4,6.5,0c-0.6-1.7,0.6-2.3,0.7-4.3c4.3,3.2,5.3,1.8,10.5,3.5c8,2.6,4.3,2.8,5.9-3.3c0.6-2.3,4.8-6.9,8.6-5.7
		c2,0.7,4.7,7.7,5.5,9.7c-0.1-0.3,1.6,1.3,1.8,1.6c0.5,1.2-0.7,2.5-0.7,2.5c0.7,1.4,3.9,3.9,4.1,5c0.5,2.1-2.1,3.4-1.4,6.1
		c0.8,2.9,3.8,5.4,5,8.9c1.1,3.4,4.5,8.6,4.8,12.4c-2.2-1.2-3.2,1.2-4.8,2.9c1.7,1.4-0.8,8.5-1.9,9.8c-1.1,1.2-3.2,1.1-4.4,2.4
		c-2,2.2-0.2,3-1.4,5.7c-2.3,5.3-5,0.7-9,3.6c-4.7,3.4,5.9,4.1,1.1,8.8c3.7,2.7,5.4,1,6.4,6c0.2,1-0.1,5.6-0.3,6.7
		c-1,4.2-6.3,7.4-0.8,12.7c-4.9,2.7-7.6-3.5-12.5-2.4c0.6,1.2,0.3,1.9,1.3,3.1c-4.3-0.7,0.2,3.5-2.1,5.9c4,2.3,1,4.4,0,6.4
		c-0.7,1.4,1.9,1.8,0.2,3.3c-0.3,0.3-4.7,0.1-5.5,0.1c-4-1.2-6.2-2.1-9.6-0.2c-0.3-3.8-3.1-6.3-4.8-9.9c-0.5-1-1.3-4-2.2-4.7
		c-1.4-1.2-3.2-0.1-4.4-1.1c-2.7-2.2-2.1-5.9-3.9-8.3c-0.5-0.7-2.3-1.1-2.3-0.8c-0.3-0.9-0.6-2.2-1-3.4c-0.4-1,0.6-2.4-0.5-3.8
		c-1.9-2.4-3.9-0.7-5.3-1.4c-3.1-1.6-3.5-1-0.2-4c1.2-1.1,4.3-0.6,4.9-1.4c0.7-0.9-0.2-3.7,0-5.1c0.6-3.5,1.9-6.4,4-9.6
		c-2.2,0.8-3.2,2.8-6,3.2c-0.3-6.1,8.4-9.9,10.3-15.3c0.9-2.7,0.4-13.7-1.4-15.7c-1.4,1.5-5,3.2-7.3,3.1c-3.4-0.3-2.8-1-3.2-5.2
		c-0.2-1.9,1.4-6.1-0.8-7.3c-3.7-2.1-2.3,4.7-2.4,5.9c-0.2,3.8,0.6,3.6-1.1,6.5c-0.7,1.1-3.8,4.4-5.1,5c-5.6,2.9-8.8-1.5-9.2-7.2
		c-0.2-3.4,1.2-4.8,0.3-8c-0.8-2.6-2.4-3.2-3.4-5.1c-0.7-1.4,1.6-2,0.4-3.6c-1-1.2-2.8-1.3-4-2.2c-1.8-1.3-7-3.4-7.4-5.7
		c-0.5-2.4,3.3-1.4,2.7-3.4c0,0-4.2-2.7-4.6-3.1c-1.9-1.8-1.5-3.4-3-4.9c-0.5-0.6-1.4-0.3-2.2-1.1c-0.5-0.6-1.4,0-1.9-0.4
		c-0.8-0.6-0.3-1.8-1.2-2.6c-0.8-0.7-2.8-0.5-3.2-0.9c-0.8-0.9-0.5-2.7-1.9-3.8c-1-0.8-1.4,0.8-2.4-0.1c-0.7-0.6-1.3-1.9-2-2.4
		c-0.5-0.4-2.3-1.2-2.8-1.8c-0.5-0.5-0.5-3.3-0.8-3.6c-1.9-1.7-7.6-1.5-3.3-5.1c-2.1-0.4-5-6.5-4.2-8.1c1.6-3.3,7.5-0.6,10,0.4
		c-0.1-1.8,0.1-2.8-1.2-4.5C11.6,88.3,14,84,16.3,81.1z"/>
	<path id="vn-67" d="M487.5,999.4c5.4,0.1,8.9,0.2,14.5,1.1c1.8,0.3,4.7,0.8,6.5,0.4c1.4-0.3,2-1.9,2.8-2c3.5-0.3,3.5,1.5,5,4.8
		c0,0.1,2.5,0.9,2.8,1.4c-0.1-0.1-1.5,1.5-1.3,2c0.9,2.3,1.9,3.5,0.8,5.6c1.8,1,3,4.6,2.2,6.6c-0.5,1.2-3.2,0.9-3.3,2.8
		c-0.2,2.6,1.5,1.1,2.9,2c3.3,2.2,10.5,4.5,3.6,8.4c-0.4-0.2-0.8-0.3-1.2-0.5c-1.6,0.7-1.8,1.2-2.8,1.3c-0.1,1.1,0,0.3-0.5,1.1
		c0.3,0.1,0.7,0.2,1,0.3c-1.7,1.5-1.4,0.8-0.2,2.1c-0.5,0-0.7,0.3-0.6,0.7c1.5,2.6,2.6,5.2,4.9,7.7c6.2-2.5,12.8,8.1,12.7,13.8
		c-0.4,0.2-0.8-0.1-1-0.1c0,0.4-0.1,0.7-0.1,1.1c-0.2-0.2-0.4-0.5-0.6-0.7c-1.6,1.7-4.6,0.3-6.9,0.3c-0.1,1.5-0.5,0.9-1,2.2
		c-0.3-0.4-0.5-0.7-0.8-1.1c-2.3,2-4.9,8.2,1.1,7c-0.5,1.2,0.2,1.5-0.4,2.6c1.8,1.5,2.1,3.2,3.7,5.6c1,1.5,2.8,3.4,4.7,5.1
		c3.3,3.8-8.4,9.4-11.4,10.6c-0.7-1.7-1.8-2.2-2.4-3c-1,1.5-1.4,0.7-2.1,2.4c-2.6-0.8-2.9-1.4-2.4-2.5c-0.1-3.4-1.5-5.4-6-4.8
		c-1.2,0.2-1.7,1.5-3.6,1.6c-2.3,0.1-3.5-0.5-5.9-0.9c0.6-6.1-5.5-4.5-4.3-1.8c-4,2.4-7.7,6-12.1,8.9c-0.3-0.2-0.7-0.3-1-0.5
		c-4.9-1.5-8.1,7.6-12.8,2.8c0.7-2.5,2.4-4.6,2.6-6.8c0.2-1.9-2.3-7.5-6.2-8.8c1.6-3.2-3.3-5.6-5.5-7.6c-1.2,1.2-3.8,0.4-4.4-1.8
		c-0.3,0.4-0.6,0.7-0.9,1.1c-0.4-2.6-0.5-5.5,0.7-7.9c-1.6-0.9-4.1-15-2.9-16.8c0,0,5.7-2,6.3-2.1c2.9-0.8,3.3,0.8,5.9-1.1
		c2.4,1.9,3.7,7.4,6.2,8c3.2,0.7,2.1-2.5,3.5-4c1.7-1.8,5-2.4,6.9-4.3c2.5-2.6,1.6-5.1,2.4-8.2c0.4-1.6,1.6-3.1,1.8-4.7
		c0.2-1.6-1.4-2.3-1.2-3.5c0.6-3.5,2.3-4.7,1.8-9C488.5,1010.5,486.5,1005.7,487.5,999.4z"/>
	<path id="vn-93" d="M305,1262c1.8-2.4,1.8-6.9,4.8-6.3c1.9,0.4,3.5,6.6,5.4,1.1c0.8,0.3,1.7,0.6,2.3,1c-0.4,0.4-0.8,0.9-1.2,1.3
		c2,0.7,2.9-0.8,4-0.8c1,0,0.6-0.6,1.3-0.8c1-0.2,1.9,0.7,3.3,0.6c6.3-0.4,7.4-2.9,12.8,2c-3,2.6-3.3,8.2-4.3,12
		c2.8,7-11.7,11.4-16.2,15.8c-0.1-0.3-0.1-0.5-0.2-0.8c-2.3,2.1-5,1.2-6.4,3.5c-1.9-1.6-3.5,0-4.4,1.5c-3-1-4.5,0.6-6.7-1.1
		c-0.5,0.2-6.7,0.8-6.7,0.8c-3.9-1.9,4.3-7.4-2.4-6.5c0.1-0.4,0.1-0.8,0.2-1.2c-2,0.4-3.2-0.5-3.9-2.6c2.2-1,6.3-3.2,7.6-4.6
		c0.6-0.6-0.7-2.2,0.4-3.1c0.3-0.1,0.6,0.1,1.3-0.8c0.4-0.5-0.6-2-0.2-2.2c0.7-0.6,2-0.3,2.8-0.9C301.2,1268,307.4,1265.6,305,1262z
		"/>
	<path id="vn-92" d="M301.6,1225.1c4.5,4.5,8.1,7.4,11.8,12.5c3.7,5,10,6.6,14.3,10.9c5.6,5.6,6.7,9.4-1.5,10.3
		c-1.4,0.1-2.8-1.9-4-1.8c-0.6,0.1-0.5,1.4-1.4,1.5c-1.6,0.1-2.3,1.7-4.4,0.8c0.4-0.4,0.8-0.9,1.2-1.3c-0.6-0.4-1.5-0.7-2.3-1
		c-1.9,5.5-3.5-0.8-5.4-1.1c-3-0.4-2.9,3.7-4.8,6.3c-6.8-6.3-13.5-14.5-19.6-19.8c-1.1-0.9-7.9-3.4-7.8-6.2c0.1-3.2,5.3-4.1,6.7-6.6
		c1.2,0.6,2.3,3.6,3.5,3.8c1.9,0.4,7.4-2.5,9.2-3.1c-0.6-0.8-0.7-2.1-1.3-3C298.2,1227.4,300.3,1227,301.6,1225.1z"/>
	<path id="vn-48" d="M510.8,698c0.2-3.4,3.7-7.5,4.9-10.2c0.7-1.6-1-1.6,1.1-2.8c2.7-1.5,2.1,0.7,4.5,0.4c1.8-0.2,4.3-1.5,5.5-1.4
		c1.5,0.1,3.7,2.4,5.5,2.8c4.1,0.9,7.9-2.5,12.2-3c0,0.3,0,0.7,0,1c-2.4-0.3-4.2,1-3.8,3.4c-3.4,0.7-3.6,5.7,1,7.5
		c4,1.6,9.3-3.1,4.7-3.2c0.6-5.6,5.1-1.6,8-0.5c0.1-0.5,0.5-1,0.6-1.8c1.1,0.5,1.7,0.9,2.3,2.3c-2.3,0.9-1.1,0.3-2.7,2
		c-8.8-3.5-3.8,7.6-1.7,12c-3-0.3-4.1-0.5-6.5,2.3c-0.6-2.3-0.6-1.5-2.4-2.2c-0.2,0.8-0.3,1.6-0.5,2.4c-1.5-1.6-3.2-0.4-4.9,0
		c-2.8,0.7-5.1,0.5-8.5,0.7c-3.3,0.2-6.8,2.3-6.7-2.9c0-1.5,1.9-3.3,1.9-5c0-1.8-2.3-1.5-1.5-4.5c-1.5,0.4-3.6,2.5-4.9,2.5
		c-1.3,0-0.9-1.2-2.1-1.3C514.7,698.6,513.2,697.4,510.8,698L510.8,698z"/>
	<path id="vn-1" d="M348.6,227.6c-1.1-4.1-4.2-1.1-5.6-4.8c-0.5,0.2-1.1,0.5-1.6,0.7c-1.1-4.5-1.5-3.1-1.9-6.9
		c-0.3-2.4-0.7-4.9-1.4-6.7c0.7-0.2,2.2-1.5,3.1-1.8c-1.3-1.6-1.7-3.4-0.5-5c-1.5-0.2-0.9-0.3-1.3-1.1c-1.5-0.5-7.4-3.5-4.9-5.8
		c-2.2-1.1-4.5-2.1-6.7-0.2c0.1-0.1-1.4,4.6-1.7,5.2c-0.8,1.5-2.3,2.1-2.7,3c-1.4,3.1-1,2.6,1.4,5.5c1.1,1.3,5.9,3.9,1.9,4.4
		c1.1,3.5-1.6,4.6-3.4,5.3c-1.6-1.8-7.2-3.7-9.1-4c-2.1-0.4-5.2,0.7-8.3,0.7c-5.7,0-6.2-2.4-7.8-7.3c-1-3.3-2.7-8.7-7.3-5.9
		c-0.1-0.6-0.3-1.2-0.4-1.8c-2,1.6-0.9,4.3-1.7,6.9c-1.3,4.2-4.2,2.8-5.4,6.6c-0.7,2.2,1.9,5.5,2.1,8c0.1,1.3-3.2,8.6,1.1,6.4
		c-0.1-0.2,0.5,1.4,0.1,1.2c2.1,0.1,3.5-0.1,5.5-1.4c0.9,0.9,19,3.8,10.3,8.9c2.5,1.8,4.9,0.1,7.5,0.7c-2.2,0.6-2.9,2.8-3.6,4.3
		c2.5-0.2,4.4,2.3,3,4.8c0.8-0.8,0.9-0.4,1.5-1.3c2.3,0.9,2.1,0.7,3.6,0.4c0.9,1.4,0.2,1-0.6,1.4c-0.2,2.1,3.2,5.9,1,6.3
		c0.7,2.5,5.3,5.7,2.3,7.5c1.4,1.9,2.3,4.7-0.3,4.7c2.1,1.8,4.7,1.6,6.9,3.1c4,2.6,2.8,4.5,6,0.1c1.3-1.8,0.2-3.1,2.7-4.9
		c-0.6-0.7-0.8-1.1-1.1-1.6c2.1,1.3,6.7,3.9,6.7-0.4c2.8-1.4,4.9-1,5.5,1.8c0.9-1.6,2.2-2.7,3.5-2.7c0.3-0.9,0.3-1.5,0.6-2.6
		c-4.6,1.6-2-1.6-3-3.3c-0.5-0.8,0.2-2.5-0.3-3.4s-2.2-0.4-2.6-1c-2.6-4.7,0.1-4.3-0.3-8.2c-0.1-1.1-2.8-2.2-3.2-3.4
		c0-0.1,0.9-2.1,1-2.5c0.3-2.6,0-4.9,4.4-2.5c-0.7-3.3,2.3-3.4,4.1-4.7C346.9,229.6,347.4,228.6,348.6,227.6z"/>
	<path id="vn-31" d="M425.5,247.5c1.1,0.6,2.2,2,3.1,2.9C424.9,252.3,420.2,249.3,425.5,247.5z M432.5,243.2
		c1.2,3.6,2.7,0.5,5.4,1.6c2.3,1,3.3,1.5,4.8,2.8c0.5,1.8,3.4,0.8,4.4,4.3c-0.4-0.1-0.9-0.3-1.3-0.4c0.1,0.5,0.7,0.9,0.6,1.5
		c-0.6-0.3-1.7-0.6-2.4-0.8c-1.3,1-1.7,1.2-3,1.8c1.8,0.8,2.8,1.9,2.6,3.9c-0.4,0.3-1.8,1-2.6,1.2c0.4-0.9,0.3-0.8,0.4-1.5
		c-2.1,0.7-3.3-0.4-4.2-2.4c0.1,0.8,0,1.6,0,2.3c-0.8-0.8-1.5-2.2-2.4-2.9c0.5,0.4-5-4.8-4.5-3.9c-1.3-2.3-0.6-6.6,2.6-5
		C432.7,244.4,432.8,243.9,432.5,243.2z M402.1,229.3c2.7,0.5,5.8,0.4,8.6,2.1c6.6-0.6,6.9,8.1,3.1,11.9c-1.7-1.4-1.7-0.7-3.6-0.2
		c3,1.7,6.4,4.2,9.7,5.4c-1.5,1.5-3.6,0.9-4.8,0c1.1,3.8,0.2,6.1,4,9.3c-0.2,1.6-0.3,2.2-0.6,3.6c-0.5-0.8-1.7-1.6-2.5-2.7
		c-1.6,1.7-3.8,3.1-6.2,3c0.9,2.8-1.7,6.1-4.8,6c-1.6-0.8-2.6-0.8-3.9-2c-1,0.9-2.4,1.1-3.3,1.9c-1.8-0.8-2.8,0.5-4.2,1.7
		c-2.3-2.5-2.9,1.2-4.2,0.4c-1.8-1.1-2-4.1-3-6.1c-1.6-3.1-3.8-2.2-2.3-5.5c0.6-1.3-0.3-2.2,2.2-0.1c0.3-0.5,0.7-1.1,1-1.6
		c0.3,0.6,0.1,0.9,0.3,1.3c0.3,0,0.5,0,0.8,0c-0.2-0.6-0.2-1-0.7-1.9c3.1-0.6,5.6-1.9,3-5.5c1.5-0.1,0.6-0.6,2-0.1
		c0.7-2.5,0.6-1.6-1.7-2c-0.3-2.5,0.2-0.9-1.1-3.2c0.4-0.3,0.8-0.6,1.2-0.9c0.3,0.5,0.5,0.9,0.8,1.4c2.4-0.4,0.9-1,2.6,0.2
		c2.8-2.3,1.7-3.5-0.2-5.4c0.3-0.7,1-1,2-1.1c-0.3-1.2-1.4-2.1,0.5-2.6c0.2,0.8-0.1,0.9,0.3,1.5c0.2-0.5,0.5-1.6,0.7-2
		c0.5,1.2,1-0.2,0.3,1.5c5.2-0.9-2.6-4.9-0.4-8.1C399.2,230.3,400.1,229.7,402.1,229.3z"/>
	<path id="vn-79" d="M425.4,1212.8c-0.6,0.2-1.1,0.4-1.7,0.6c4.1,7.1-4.7,3.4-6.2,2.1c-5.2-4.6-2.1-10.2-4.1-14.3
		c-0.2,0.2-0.5,0.4-0.7,0.6c-1.1-2.2-1.1-1.9,0.3-2.7c0.5-2.5-1.7-4.3-4.2-4.3c-0.3,1.1-1,0.9-1.6,1.6c-0.1,0-0.1-0.1-0.2-0.1
		c-2,1.7-2.4,0.3-4,0c0.7,0.1-2.3-1-2.4-1c-1.4-0.5-2,0.4-3.2,0c-1-0.4-1.5-4.4-2.8-5.6c-1.3-1.3-3.6-1.5-5.8-4
		c4.4-2,7.1-10.6,5-13.7c-2.7-4.1-13.1-4.3-14.7-7.6c5.3-1.2,4.8-2.4,5.9-6.7c0.7-2.4,3.2-6.8,2.6-8.5c1.3,0.8,8.7,2,5.8,5.2
		c0.6,1,1.1,0.4,1.6,0.9c-1.6,2.6,1.5,5.1,3.5,3.2c1.6,0.5,1.1,0.7,2.4,0.9c-0.6,2.3,1.8,5.8,4.5,5.8c-0.5,3.1,4.8,10.7,6.9,9.9
		c-0.1-0.1-1-0.6-1-0.5c0.2-0.5,0.7-1.1,0.5-1.7c1.9,0.8,2.6,1.2,3.2,2.8c0.2-0.6,1.1-1.7,1.5-2.8c0.2,0.7,0.8,1.7,1.1,2.4
		c1.6,0,3.9-1.6,5.4-2.7c0.6,1.9,1.4,3.6,1.8,5.5c0.8,3.2,0.8,3.4,1,6.6c-2.2-0.8-1.8-0.8-4.1,0.5c-0.4-3.9-6.5,2.4-6.4,4.6
		c0,1.6,5.9,6.8,7.2,7.3c0.1,0,2.3-1.6,2.9-1.4c1.1,0.4,2.1,1.3,3.6,2c1.6,0.8,4.8,2.7,7,3.9c1.7-7.3,3.6,3.5,3.8,3.6
		c-1.1,1.2-0.7,0.8-1.9,0.7c-0.2,2.2-2.9,2.8-3.4,6.4c-0.7-0.3-1.3-0.6-2-0.9c0.3-0.3,0.7-0.6,1-0.9c-4.1-0.1-1,5.5,2,6.2
		c-2.2,2.1-6,3.5-9.1,3.4c0-2.2,0.3-8.2-1-8.8C425.5,1211.7,425.4,1212.3,425.4,1212.8z"/>
</g>
<g id="islands">
	<text transform="matrix(1 0 0 1 814.8854 726.4503)"><tspan x="0" y="0" class="st1 st2">QUN O HONG SA</tspan><tspan x="-0.4" y="18" class="st1 st3">(Huyn Hong Sa -  Nng)</tspan></text>
	<path id="hoang-sa" d="M1094.5,1103.9c-6.5-0.9-15.3,10.6-6.6,10C1087.2,1113.9,1100.4,1104.7,1094.5,1103.9z M1127.3,1103.2
		c-2.5,0-12.4-4.1-8.3,2.1c2.7,4,13.2,0.6,12.9,0.2C1130.9,1103.7,1129.4,1102.9,1127.3,1103.2z M1114.3,1116.5
		c2.6-2.6-0.3-2.4-0.5-3.1C1113.1,1110.9,1110.2,1120.4,1114.3,1116.5z M1091.6,1141.1c0.8,0.5,1.6,0.8,2.6,0.8
		C1096.8,1141.2,1088.9,1138.9,1091.6,1141.1z M1091.3,1140v-0.3C1091.2,1139.8,1091.2,1139.9,1091.3,1140z M1085.8,1144.2
		c0-6.8-8.5-1-8.6,0.3C1077.1,1146,1085.8,1146,1085.8,1144.2z M1126.6,1137.4c-1.2,1.6-4.7,4.4-5.2,6.3c-0.6,2.2-0.8,8.9,3.8,6.1
		C1125.4,1149.7,1126.6,1138.3,1126.6,1137.4z M1153.3,1139c-0.7-2.8-2.9-0.5-3.9,0.5C1149.7,1139.6,1153.7,1140.8,1153.3,1139z
		 M1140.3,1161.1c1.2,0,5-1.1,2.7-3.4C1141.7,1156.4,1139.5,1161.1,1140.3,1161.1z M1111.8,1170.9c0.6,0.3,1.3,0.3,1.9,0
		c1.7-1.9-2.2-1.6-1.9-2.1C1111.7,1169.1,1111.2,1170.6,1111.8,1170.9z M1106.3,1174.1c-1.5,2.5,1.8,1.9,1.8,1.8
		C1108.2,1175.3,1106.8,1174.4,1106.3,1174.1z M1090.2,1173.7c0,0-3.2-1-2.8-1.2C1080.8,1174.2,1096.5,1177,1090.2,1173.7z
		 M1110.9,1204.4c1.7,0,3-3.2,1-3.7C1109.6,1200.1,1108.3,1204.4,1110.9,1204.4z M1123.2,1208.6c-1.2,0.1-2.2,0.5-3.2,1.1
		C1123.6,1215.7,1126.3,1208.6,1123.2,1208.6z M1081.9,1227.4c4,0-0.5-9.1-2.9-7.6C1077.8,1220.6,1081,1227.4,1081.9,1227.4z
		 M1121.5,1237.6c-1.5,1.2-13.4-1.1-13.4,3.5c4.5,2.2,5.9,1.5,9.4,0.8c1.3-0.3,9.4-5.3,5.9-5.4
		C1122.8,1236.9,1122.1,1237.2,1121.5,1237.6z M1092.8,1247.6c0.1,0.6,0.7,3.3,1.9,3C1097.9,1249.9,1094.2,1247.6,1092.8,1247.6z
		 M1101.9,1249.5c0-2.5-1.7-1-2.1-0.6C1099.9,1248.9,1101.9,1250.3,1101.9,1249.5z M1099.8,1248.9
		C1099.7,1248.9,1099.7,1249,1099.8,1248.9L1099.8,1248.9z M1103.9,1251.9c-0.9,2,2.3,1.9,1.9,0.3
		C1105.2,1251.3,1104.6,1251.2,1103.9,1251.9z M1099,1254.5c-0.3,1.1,0.3,1.7,1.5,1.6C1102.3,1256,1099.6,1254.5,1099,1254.5z
		 M1082.9,1260.8c-3-1-1.2,1.1-1.8,2.6C1080.3,1265.4,1087.7,1262.3,1082.9,1260.8z M1061.4,1240.3c3.1,0-1.4-1.4-1-0.8
		C1058.8,1240.8,1060.3,1240.3,1061.4,1240.3z M1046.3,1237.7c0.6-1.3,0.8-2.7,0.6-4.2c-1.6-1.6-2.1,6.1-2.1,6.2
		c0.4,1.2,5.1,4.7,4.9,3C1049.3,1240.4,1046.3,1240.4,1046.3,1237.7z M976.2,1272.5c-2.9,0-18.2,4.8-13.2,8.1
		C968.9,1284.5,976.5,1272.5,976.2,1272.5z M1027.3,1311.5c0.4,1.5,3.6,3.9,3.6,2.4C1030.9,1312.8,1028.2,1311.9,1027.3,1311.5z
		 M1027.3,1311.5v-0.3C1026.9,1311.2,1027,1311.3,1027.3,1311.5z M1063.1,1347.5c-1.7-0.9-5.5,0.9-5.5-1
		C1057.6,1356.9,1072.8,1352.6,1063.1,1347.5z M1074.4,1353.9c-3.6-6.7-8,9.1-6.8,11.5c1.7,3.3,6.2,0.8,7.5-1.5
		C1074.9,1364.2,1074.4,1354,1074.4,1353.9z M1000.3,1402.8c-1.8-1-3.3-0.7-4.5,1c2,3.5-5.8,4.9-2.9,7.3
		C996.5,1414.2,1002.4,1403.9,1000.3,1402.8z M1086.6,1430.6c-7.1,4.3-3,4.8,3.3,2.4C1100.6,1429,1090.7,1426.5,1086.6,1430.6z
		 M1062.2,1448.3c-5.1,1.4-3.8,5.7,1.5,3.8c1-0.4,3.2-1.8,3-3.2C1066.1,1445.2,1064.3,1448.3,1062.2,1448.3z M876.3,1407.7
		C876.3,1420.9,889.1,1401.3,876.3,1407.7z M843.8,1432.2c-3.1,1.5-13.1,9.3-5.7,9.5C844.6,1441.9,845.1,1431.5,843.8,1432.2z
		 M850.8,1448.6c-1.7,4.5,5.5,3.6,5.7,2.4C857,1447.9,852,1443.9,850.8,1448.6z M1103.8,1253.7c0.2,0.1,0.2-10.6-5.3-6.9
		c0.1,0.7,0.5,1.3,1,1.8c-0.1,0,4.3-3.1,2.6,1.1c-0.6,0.2-1.1,0.3-1.7,0.1c0.3,2.2,1,3.3,1,5.5
		C1101.4,1256.1,1104.7,1254.3,1103.8,1253.7z M1030.4,1314.6c-1.3-0.5-2.5-1.3-3.3-2.4C1029.5,1313.1,1029.3,1314.6,1030.4,1314.6z
		"/>
	<text transform="matrix(1 0 0 1 925.5045 1311.1002)"><tspan x="0" y="0" class="st1 st2">QUN O TRNG SA</tspan><tspan x="-3.7" y="18" class="st1 st3">(Huyn Trng Sa - Khnh Ha)</tspan></text>
	<path id="truong-sa" d="M833.8,586.4c1.7,1.7,7,2.2,7.4-1.2C841.6,582.8,831.7,582.1,833.8,586.4z M844.1,639.4
		c1.5,1,2.6,0.8,3.3-0.7C847.4,634.7,841.4,638.1,844.1,639.4z M839.1,644.2c-2.5-2.5-0.7,12.7,4.1,1.9
		C847.3,636.9,840.5,645.6,839.1,644.2z M849.8,638c3.2,1.9,13.6,12.6,9.4,1c-1.6-4.3-7.5-3.3-9.3-6.8
		C849.1,633.7,847.6,636.6,849.8,638z M861.1,659.3c-4.5-2.7-5.9-11-9.8-6.6c-1.4,1.5,1.5,6.2-0.7,8.2c-4.1,3.4-5.2-3.3-8.5-2.2
		c0.1-0.1-4.3,6-4.7,6.8c-2.2,3.9,2.1,5.3-4,5.1c-1.5,0-1.5-5-3.7-4.5c-3.3,1,1.1,9.6,2.1,10.3c5,3.5,5.5,0.5,7.1-1.1
		c2.6-2.6,2.1-9.2,4.2-10.9c2.4-1.9,5.4-0.3,9-1.4c0.9-0.3,1.9-4.2,2.5-4.1c5,0.7-0.9,5.3-1,7.2c-0.3,4.4,4.6,7.2,4.4,10.4
		c-0.2,3.8-8,4.3-7.8,5.5c1.4,7.2,5.7,0.4,6.6,0c1.4-0.8,3.8,0.7,5-0.7c-0.3,0.4,0.6-5.3,0.5-4.8c0.4-3.3,2.7,0.4,0.7-3.5
		c-2.4-4.8-10.7-1.8-2.1-7.4c1.6-1.1,5.6,1.4,5.7-2.4C866.7,661.2,861.5,661.4,861.1,659.3z M861.1,659.3
		C865,661.7,859.5,651.5,861.1,659.3L861.1,659.3z M877.5,655.5c-8.1,4,3.2,6.4,5.4,3.8C885.7,656.1,880.8,653,877.5,655.5z
		 M950.8,636.2c0-2.1,0.3-9.3-1.1-10.8c-4.3-4.6-4.9-0.1-5.2,1.1C943.5,630.4,950.8,644.7,950.8,636.2z M919.2,620.9
		c-1.4-5.8-0.6-9.2-3.9-14.4c-1.1-1.7-3-3-3.8-4.8c-0.8-1.7-0.9-7.1-1.4-7.9c-1.3-1.8-12-4.1-13.9-0.5c-3,5.6,11,12,12.7,17
		c1.3,3.9-1.5,7.6,2.1,11C912.8,623,920.1,624.6,919.2,620.9z M940.2,683.4c-5-6.2-9.6-3.9-15.2,0.4c-3.8,2.9-4.3,2.6-5.3,8.3
		c-0.3,1.3-0.8,10-0.2,10.1c5.5,0.6,4.2-6.4,5.4-8.8c0.7-1.4-0.4-2.9,1-4.3c1.2-1.2,3.4,1.1,3.5,1c1.9-1.8,2.3-6.2,5.2-7.4
		c4.4-1.9,2.3,3.3,6.9,3.3C941.9,684.9,941.5,684,940.2,683.4z"/>
</g>
</svg>
